<svg width="200" height="40" viewBox="0 0 200 40" fill="none" xmlns="http://www.w3.org/2000/svg">
<g clip-path="url(#clip0_1_298)">
<path d="M85.027 20.795L83.202 20.627C82.005 20.523 81.522 20.103 81.522 19.368C81.522 18.508 82.257 17.941 83.684 17.941C85.027 17.941 85.699 18.528 85.804 19.473H90.085C89.812 16.682 87.84 14.709 83.81 14.709C79.613 14.709 77.303 16.849 77.303 19.682C77.303 22.327 78.751 23.775 82.341 24.07L84.147 24.216C85.551 24.322 86.056 24.804 86.056 25.643C86.056 26.525 85.322 27.175 83.81 27.175C82.403 27.175 81.565 26.545 81.418 25.435H76.905C77.303 28.477 79.445 30.491 83.789 30.491C88.008 30.491 90.337 28.331 90.337 25.412C90.337 22.579 88.784 21.132 85.027 20.795ZM70.252 14.709C67.566 14.709 65.97 16.115 65.215 18.991H64.942V14.961H60.702V30.241H65.215V21.341C65.215 19.305 66.265 18.193 68.153 18.193C70.021 18.193 70.945 19.348 70.945 21.32V30.24H75.457V20.523C75.457 16.828 73.526 14.709 70.251 14.709H70.252ZM56.316 9C54.784 9 53.629 10.008 53.629 11.54C53.629 13.072 54.763 14.08 56.295 14.08C57.827 14.08 58.96 13.071 58.96 11.54C58.96 10.028 57.827 9 56.316 9ZM58.561 14.96H54.05V30.24H58.562V14.96H58.561ZM97.431 11.728H94.556C94.472 14.185 93.422 15.254 91.071 15.443V18.55H92.919V25.266C92.919 28.645 94.849 30.491 98.69 30.491C99.412 30.491 100.132 30.4 100.831 30.219V26.587C100.471 26.647 100.106 26.6751 99.741 26.671C98.124 26.671 97.431 26.062 97.431 24.361V18.55H101.398V14.96H97.431V11.728ZM169 18.55V14.96H165.034V11.728H162.2C162.137 13.428 161.633 14.415 160.521 14.961V25.266C160.521 28.645 162.452 30.491 166.293 30.491C167.015 30.4911 167.735 30.3997 168.434 30.219V26.587C168.073 26.647 167.708 26.6751 167.342 26.671C165.726 26.671 165.034 26.062 165.034 24.361V18.55H169ZM154.225 19.221H153.952V14.96H149.775V30.24H154.288V21.97C154.288 19.682 155.316 18.717 157.667 18.717C158.066 18.717 158.506 18.76 159.115 18.864V14.919C158.704 14.7747 158.271 14.7036 157.835 14.709C156.008 14.709 154.749 15.759 154.225 19.221ZM125.408 26.631C123.288 26.631 121.756 25.223 121.756 22.495C121.756 20.061 123.183 18.55 125.366 18.55C127.234 18.55 128.304 19.599 128.619 21.278H133.194C132.754 17.353 129.942 14.708 125.429 14.708C120.476 14.708 117.223 18.067 117.223 22.664C117.223 27.427 120.35 30.491 125.366 30.491C129.921 30.491 132.88 27.953 133.3 23.838H128.724C128.473 25.518 127.318 26.63 125.408 26.63V26.631ZM109.227 14.709C105.302 14.709 102.931 16.639 102.51 20.102H106.834C106.98 18.906 107.758 18.276 109.121 18.276C110.506 18.276 111.136 18.906 111.136 19.809C111.136 20.564 110.654 20.964 109.416 21.194L107.358 21.572C103.728 22.243 102.342 23.733 102.342 26.105C102.342 28.812 104.252 30.513 106.897 30.513C109.058 30.513 110.465 29.505 111.116 26.987H111.388V30.24H115.649V20.27C115.649 16.807 113.571 14.709 109.227 14.709ZM108.723 27.427C107.506 27.427 106.813 26.777 106.813 25.811C106.813 25.014 107.296 24.468 108.492 24.195L109.331 24.006C110.055 23.839 110.617 23.615 111.137 23.166V24.783C111.137 26.65 110.15 27.427 108.723 27.427ZM141.296 14.709C137.371 14.709 135 16.639 134.58 20.102H138.903C139.051 18.906 139.827 18.276 141.191 18.276C142.576 18.276 143.206 18.906 143.206 19.809C143.206 20.564 142.723 20.964 141.485 21.194L139.428 21.572C135.797 22.243 134.411 23.733 134.411 26.105C134.411 28.812 136.321 30.513 138.966 30.513C141.128 30.513 142.534 29.505 143.185 26.987H143.458V30.24H147.719V20.27C147.719 16.807 145.64 14.709 141.296 14.709ZM140.792 27.427C139.575 27.427 138.882 26.777 138.882 25.811C138.882 25.014 139.365 24.468 140.561 24.195L141.4 24.006C142.124 23.839 142.687 23.615 143.206 23.166V24.783C143.206 26.65 142.22 27.427 140.792 27.427Z" fill="#003D29"/>
<path d="M46.453 12.656C45.525 12.656 44.863 13.06 44.253 13.938L42.493 16.465V9.25195H38.296V16.465L36.536 13.938C35.927 13.06 35.266 12.656 34.337 12.656C32.937 12.656 32.005 13.69 32 14.963C31.996 16.054 32.51 16.765 33.595 17.463L40.395 21.844L47.195 17.464C48.279 16.765 48.794 16.054 48.79 14.964C48.786 13.69 47.853 12.656 46.453 12.656Z" fill="#0AAD0A"/>
<path d="M40.395 22.894C44.436 22.894 47.75 25.911 47.74 30.24H33.05C33.041 25.912 36.353 22.894 40.395 22.894Z" fill="#FF7009"/>
</g>
<defs>
<clipPath id="clip0_1_298">
<rect width="200" height="40" fill="white"/>
</clipPath>
</defs>
</svg>
