<svg width="200" height="40" viewBox="0 0 200 40" fill="none" xmlns="http://www.w3.org/2000/svg">
<g clip-path="url(#clip0_1_336)">
<path d="M75.18 3.59989H82.89V24.3399C82.89 27.6399 84.38 29.5899 85.59 30.4099C84.33 31.5099 80.51 32.4899 77.64 30.1299C75.94 28.7399 75.18 26.4299 75.18 24.2699V3.58989V3.59989ZM123.33 20.8499V18.6599H125.69V11.0199H123.1C122.541 8.59069 121.11 6.45114 119.078 5.00685C117.046 3.56256 114.555 2.91394 112.077 3.18394C109.599 3.45394 107.306 4.6238 105.633 6.47174C103.96 8.31968 103.023 10.7172 103 13.2099V31.0299C103.903 31.1778 104.828 31.1302 105.711 30.8904C106.594 30.6506 107.416 30.2242 108.12 29.6399C109.82 28.2499 110.58 25.9399 110.58 23.7799V23.1099H114.43V15.4699H110.58V13.1599C110.58 12.473 110.853 11.8142 111.339 11.3285C111.824 10.8428 112.483 10.5699 113.17 10.5699C113.857 10.5699 114.516 10.8428 115.001 11.3285C115.487 11.8142 115.76 12.473 115.76 13.1599V20.8199C115.76 23.5199 116.831 26.1098 118.737 28.0218C120.643 29.9338 123.23 31.012 125.93 31.0199V23.4199C125.591 23.4212 125.255 23.3558 124.942 23.2273C124.628 23.0989 124.343 22.91 124.103 22.6713C123.862 22.4327 123.671 22.149 123.54 21.8365C123.409 21.5239 123.341 21.1887 123.34 20.8499H123.33ZM94.17 10.9999V22.2299C94.17 22.8799 93.63 23.3899 92.99 23.3899C92.35 23.3899 91.81 22.8799 91.81 22.2299V10.9999H84.21V24.1899C84.21 26.5499 84.99 29.5599 88.66 30.5399C92.32 31.5199 94.43 29.4899 94.43 29.4899C94.23 30.8199 92.99 31.7999 90.97 32.0099C89.4443 32.0773 87.9223 31.8111 86.51 31.2299V38.2299C88.99 38.9699 91.61 39.2099 94.2 38.6899C98.86 37.7899 101.8 33.8899 101.8 28.6599V10.9499H94.17V10.9999Z" fill="#FF00BF"/>
</g>
<defs>
<clipPath id="clip0_1_336">
<rect width="200" height="40" fill="white"/>
</clipPath>
</defs>
</svg>
