<svg width="200" height="40" viewBox="0 0 200 40" fill="none" xmlns="http://www.w3.org/2000/svg">
<g clip-path="url(#clip0_1_303)">
<path d="M94.78 4.374C96.626 2.462 99.198 1.253 102.033 1.253C105.813 1.253 109.088 3.363 110.846 6.483C112.416 5.78284 114.116 5.42361 115.835 5.429C122.648 5.429 128.143 10.989 128.143 17.846C128.143 24.703 122.626 30.264 115.835 30.264C115.023 30.263 114.214 30.1819 113.418 30.022C112.635 31.4216 111.494 32.5871 110.11 33.3983C108.727 34.2095 107.153 34.6371 105.549 34.637C104.187 34.6361 102.842 34.3285 101.615 33.737C100.055 37.407 96.407 40 92.165 40C87.747 40 83.967 37.209 82.516 33.275C81.8724 33.4072 81.217 33.4736 80.56 33.473C75.286 33.473 71.022 29.165 71.022 23.824C71.0183 22.1366 71.4567 20.4777 72.2936 19.0125C73.1305 17.5474 74.3367 16.327 75.792 15.473C75.1787 14.0811 74.8639 12.5761 74.868 11.055C74.846 4.967 79.835 0 85.945 0C89.549 0 92.758 1.714 94.78 4.374Z" fill="#00A1E0"/>
<path d="M79.286 20.747L79.528 20.11C79.572 20 79.638 20.044 79.681 20.066C79.747 20.11 79.791 20.132 79.879 20.198C80.561 20.638 81.198 20.638 81.396 20.638C81.901 20.638 82.231 20.374 82.231 20V19.978C82.231 19.582 81.747 19.428 81.176 19.253L81.044 19.209C80.274 18.989 79.44 18.659 79.44 17.692V17.67C79.44 16.747 80.187 16.088 81.264 16.088H81.374C82.011 16.088 82.604 16.264 83.044 16.549C83.088 16.571 83.132 16.615 83.11 16.681C83.088 16.747 82.89 17.253 82.868 17.319C82.824 17.429 82.714 17.363 82.714 17.363C82.2519 17.1237 81.7403 16.9957 81.22 16.989C80.758 16.989 80.473 17.231 80.473 17.56V17.582C80.473 17.956 80.978 18.132 81.55 18.308L81.66 18.33C82.429 18.571 83.242 18.901 83.242 19.846V19.868C83.242 20.879 82.517 21.495 81.352 21.495C80.78 21.495 80.231 21.407 79.637 21.099C79.527 21.033 79.417 20.989 79.307 20.901C79.286 20.857 79.242 20.835 79.286 20.747ZM96.429 20.747L96.67 20.11C96.714 20 96.802 20.044 96.824 20.066C96.89 20.11 96.934 20.132 97.022 20.198C97.703 20.638 98.341 20.638 98.539 20.638C99.044 20.638 99.374 20.374 99.374 20V19.978C99.374 19.582 98.89 19.428 98.319 19.253L98.187 19.209C97.417 18.989 96.583 18.659 96.583 17.692V17.67C96.583 16.747 97.33 16.088 98.407 16.088H98.517C99.154 16.088 99.747 16.264 100.187 16.549C100.231 16.571 100.275 16.615 100.253 16.681C100.231 16.747 100.033 17.253 100.011 17.319C99.967 17.429 99.857 17.363 99.857 17.363C99.3949 17.1237 98.8833 16.9957 98.363 16.989C97.901 16.989 97.616 17.231 97.616 17.56V17.582C97.616 17.956 98.121 18.132 98.692 18.308L98.802 18.33C99.572 18.571 100.385 18.901 100.385 19.846V19.868C100.385 20.879 99.659 21.495 98.495 21.495C97.923 21.495 97.374 21.407 96.78 21.099C96.67 21.033 96.56 20.989 96.45 20.901C96.45 20.857 96.407 20.835 96.429 20.747ZM109.132 17.737C109.22 18.066 109.286 18.417 109.286 18.791C109.286 19.165 109.242 19.516 109.132 19.846C109.044 20.176 108.89 20.461 108.692 20.703C108.495 20.945 108.231 21.143 107.945 21.275C107.611 21.4122 107.251 21.4796 106.89 21.473C106.495 21.473 106.143 21.407 105.835 21.275C105.543 21.1482 105.287 20.9518 105.088 20.703C104.882 20.4523 104.732 20.16 104.649 19.846C104.552 19.5026 104.5 19.1479 104.495 18.791C104.495 18.418 104.539 18.066 104.649 17.736C104.736 17.406 104.89 17.121 105.088 16.879C105.286 16.637 105.55 16.439 105.835 16.308C106.143 16.176 106.495 16.088 106.89 16.088C107.286 16.088 107.638 16.154 107.945 16.308C108.253 16.44 108.495 16.638 108.692 16.879C108.89 17.121 109.044 17.407 109.132 17.736V17.737ZM108.143 18.769C108.143 18.198 108.033 17.759 107.835 17.451C107.638 17.143 107.308 16.989 106.89 16.989C106.451 16.989 106.143 17.143 105.945 17.451C105.747 17.758 105.638 18.198 105.638 18.769C105.638 19.341 105.747 19.78 105.945 20.109C106.143 20.418 106.451 20.571 106.89 20.571C107.33 20.571 107.638 20.418 107.835 20.11C108.055 19.802 108.143 19.34 108.143 18.77V18.769ZM117.176 20.418L117.418 21.077C117.44 21.165 117.374 21.187 117.374 21.187C117 21.341 116.495 21.429 115.989 21.429C115.132 21.429 114.495 21.187 114.055 20.703C113.616 20.22 113.396 19.56 113.396 18.747C113.396 18.374 113.44 18.022 113.55 17.692C113.66 17.362 113.813 17.077 114.033 16.835C114.253 16.593 114.517 16.395 114.824 16.264C115.172 16.1173 115.546 16.0425 115.923 16.044C116.209 16.044 116.451 16.066 116.649 16.088C116.868 16.132 117.176 16.198 117.308 16.264C117.33 16.264 117.396 16.308 117.374 16.374C117.286 16.637 117.22 16.814 117.132 17.033C117.088 17.143 117.022 17.099 117.022 17.099C116.689 16.9894 116.34 16.9373 115.989 16.945C115.506 16.945 115.132 17.099 114.912 17.429C114.671 17.736 114.539 18.154 114.539 18.725C114.539 19.341 114.692 19.78 114.956 20.065C115.22 20.352 115.594 20.484 116.077 20.484C116.275 20.484 116.451 20.462 116.605 20.44C116.758 20.418 116.912 20.374 117.066 20.308C117.044 20.352 117.132 20.33 117.176 20.418ZM122.165 17.538C122.385 18.286 122.275 18.923 122.253 18.967C122.253 19.055 122.165 19.055 122.165 19.055H118.846C118.868 19.56 118.978 19.912 119.242 20.154C119.484 20.396 119.857 20.549 120.385 20.549C121.176 20.549 121.506 20.396 121.747 20.308C121.747 20.308 121.835 20.286 121.879 20.374L122.099 20.989C122.143 21.099 122.099 21.121 122.077 21.143C121.879 21.253 121.374 21.473 120.407 21.473C119.945 21.473 119.528 21.407 119.198 21.275C118.881 21.1577 118.596 20.9696 118.363 20.725C118.148 20.4816 117.983 20.1977 117.879 19.89C117.771 19.549 117.719 19.1927 117.725 18.835C117.725 18.461 117.769 18.11 117.879 17.78C117.967 17.45 118.121 17.165 118.319 16.923C118.517 16.681 118.78 16.483 119.088 16.352C119.396 16.198 119.769 16.132 120.187 16.132C120.539 16.132 120.868 16.198 121.132 16.33C121.33 16.418 121.55 16.571 121.769 16.813C121.879 16.901 122.077 17.231 122.165 17.539V17.538ZM118.868 18.242H121.22C121.198 17.934 121.132 17.67 121 17.451C120.802 17.143 120.517 16.967 120.077 16.967C119.638 16.967 119.33 17.143 119.132 17.451C119 17.648 118.934 17.912 118.868 18.241V18.242ZM95.638 17.538C95.858 18.286 95.748 18.923 95.748 18.967C95.748 19.055 95.659 19.055 95.659 19.055H92.341C92.363 19.56 92.473 19.912 92.736 20.154C92.978 20.396 93.352 20.549 93.879 20.549C94.67 20.549 95 20.396 95.242 20.308C95.242 20.308 95.33 20.286 95.374 20.374L95.594 20.989C95.637 21.099 95.594 21.121 95.572 21.143C95.374 21.253 94.868 21.473 93.902 21.473C93.44 21.473 93.022 21.407 92.692 21.275C92.3754 21.1577 92.0898 20.9696 91.857 20.725C91.6422 20.4815 91.478 20.1976 91.374 19.89C91.266 19.549 91.214 19.1927 91.22 18.835C91.22 18.461 91.264 18.11 91.374 17.78C91.462 17.45 91.616 17.165 91.814 16.923C92.011 16.681 92.274 16.483 92.583 16.352C92.89 16.198 93.263 16.132 93.681 16.132C94.033 16.132 94.363 16.198 94.627 16.33C94.824 16.418 95.044 16.571 95.264 16.813C95.352 16.901 95.572 17.231 95.637 17.539L95.638 17.538ZM92.341 18.242H94.714C94.692 17.934 94.627 17.67 94.494 17.451C94.297 17.143 94.011 16.967 93.572 16.967C93.132 16.967 92.824 17.143 92.627 17.451C92.473 17.648 92.407 17.912 92.341 18.241V18.242ZM86.517 18.066C86.517 18.066 86.78 18.088 87.067 18.132V18C87.067 17.56 86.978 17.34 86.802 17.209C86.627 17.077 86.341 16.989 85.989 16.989C85.989 16.989 85.176 16.989 84.539 17.319C84.517 17.341 84.495 17.341 84.495 17.341C84.495 17.341 84.407 17.363 84.385 17.297L84.143 16.659C84.099 16.571 84.165 16.527 84.165 16.527C84.473 16.286 85.176 16.154 85.176 16.154C85.4668 16.1029 85.7609 16.0735 86.056 16.066C86.715 16.066 87.22 16.22 87.572 16.528C87.923 16.835 88.099 17.318 88.099 18V21.033C88.099 21.033 88.099 21.121 88.033 21.143C88.033 21.143 87.901 21.187 87.791 21.209C87.681 21.231 87.286 21.319 86.956 21.363C86.626 21.429 86.296 21.451 85.946 21.451C85.616 21.451 85.33 21.429 85.066 21.363C84.824 21.3083 84.5935 21.2114 84.385 21.077C84.1991 20.9377 84.0485 20.7569 83.945 20.549C83.835 20.352 83.791 20.088 83.791 19.802C83.791 19.517 83.857 19.252 83.967 19.033C84.077 18.813 84.253 18.637 84.451 18.483C84.649 18.33 84.891 18.242 85.132 18.153C85.3974 18.083 85.6705 18.0464 85.945 18.044C86.209 18.066 86.385 18.066 86.517 18.066ZM85.198 20.396C85.198 20.396 85.506 20.637 86.165 20.593C86.648 20.571 87.066 20.483 87.066 20.483V18.967C87.066 18.967 86.648 18.901 86.165 18.901C85.484 18.901 85.198 19.143 85.198 19.143C85 19.275 84.912 19.495 84.912 19.78C84.912 19.956 84.956 20.11 85.022 20.22C85.044 20.264 85.066 20.308 85.198 20.396ZM113.22 16.374C113.198 16.461 113.022 16.924 112.978 17.077C112.956 17.143 112.912 17.165 112.846 17.165C112.846 17.165 112.649 17.121 112.473 17.121C112.363 17.121 112.187 17.143 112.033 17.187C111.878 17.2371 111.736 17.3196 111.616 17.429C111.484 17.539 111.396 17.714 111.33 17.912C111.264 18.11 111.22 18.44 111.22 18.792V21.252C111.22 21.319 111.176 21.362 111.11 21.362H110.231C110.165 21.362 110.121 21.319 110.121 21.252V16.308C110.121 16.242 110.165 16.198 110.209 16.198H111.066C111.132 16.198 111.154 16.242 111.154 16.308V16.703C111.286 16.527 111.506 16.373 111.703 16.286C111.901 16.198 112.143 16.132 112.561 16.154C112.78 16.176 113.066 16.22 113.11 16.242C113.198 16.264 113.242 16.286 113.22 16.374ZM105.066 14.088C105.088 14.088 105.154 14.132 105.132 14.198L104.868 14.901C104.846 14.945 104.824 14.989 104.714 14.945C104.692 14.945 104.649 14.923 104.539 14.901C104.473 14.879 104.363 14.879 104.275 14.879C104.156 14.8814 104.038 14.8962 103.923 14.923C103.812 14.9512 103.713 15.0126 103.638 15.099C103.535 15.1991 103.453 15.3183 103.396 15.45C103.308 15.6916 103.249 15.9426 103.22 16.198H104.275C104.363 16.198 104.385 16.242 104.385 16.308L104.253 16.989C104.231 17.099 104.143 17.077 104.143 17.077H103.044L102.341 21.319C102.253 21.759 102.165 22.132 102.055 22.439C101.945 22.747 101.813 22.967 101.616 23.187C101.44 23.385 101.242 23.538 101 23.604C100.78 23.692 100.495 23.736 100.187 23.736C100.033 23.736 99.879 23.736 99.703 23.692C99.5974 23.6758 99.4942 23.6462 99.396 23.604C99.352 23.582 99.33 23.538 99.352 23.472C99.374 23.407 99.572 22.879 99.594 22.792C99.637 22.703 99.704 22.747 99.704 22.747C99.769 22.769 99.814 22.791 99.879 22.813C99.967 22.835 100.055 22.835 100.143 22.835C100.297 22.835 100.429 22.813 100.539 22.769C100.671 22.725 100.758 22.637 100.846 22.527C100.934 22.417 101 22.264 101.088 22.066C101.169 21.799 101.235 21.5275 101.286 21.253L102.033 17.099H101.308C101.22 17.099 101.198 17.055 101.198 16.989L101.33 16.308C101.352 16.198 101.44 16.22 101.44 16.22H102.187L102.231 16C102.341 15.34 102.561 14.835 102.89 14.505C103.22 14.175 103.703 14 104.297 14C104.473 14 104.627 14.022 104.758 14.044C104.863 14.0274 104.97 14.0427 105.066 14.088ZM90.253 21.23C90.253 21.296 90.209 21.34 90.165 21.34H89.285C89.22 21.34 89.198 21.296 89.198 21.23V14.175C89.198 14.131 89.242 14.065 89.286 14.065H90.165C90.231 14.065 90.253 14.109 90.253 14.175V21.23Z" fill="white"/>
</g>
<defs>
<clipPath id="clip0_1_303">
<rect width="200" height="40" fill="white"/>
</clipPath>
</defs>
</svg>
