<svg width="200" height="40" viewBox="0 0 200 40" fill="none" xmlns="http://www.w3.org/2000/svg">
<g clip-path="url(#clip0_1_321)">
<path d="M66.54 8.43007C66.52 8.25007 66.36 8.17007 66.24 8.16007C66.13 8.14007 63.78 8.12007 63.78 8.12007L61.61 6.00007C61.42 5.80007 61.05 5.86007 60.89 5.90007L59.89 6.21007C59.7736 5.81297 59.6196 5.42789 59.43 5.06007C58.73 3.71007 57.71 3.01007 56.46 3.01007C56.38 3.01007 56.28 3.01007 56.2 3.03007C55.9425 2.70569 55.6112 2.44753 55.2338 2.27707C54.8563 2.10661 54.4436 2.02878 54.03 2.05007C52.43 2.09007 50.85 3.25007 49.53 5.31007C48.6315 6.73986 48.0264 8.33415 47.75 10.0001C45.91 10.5701 44.62 10.9601 44.61 10.9801C43.69 11.2801 43.65 11.2901 43.53 12.1801C43.43 12.8201 41.01 31.5901 41.01 31.5901L61.35 35.1101L70.16 32.9201C70.16 32.9201 66.55 8.60007 66.54 8.43007ZM58.88 6.53007L57.3 7.03007C57.2927 6.03607 57.1238 5.04987 56.8 4.11007C58.04 4.34007 58.63 5.71007 58.88 6.53007ZM56.24 7.35007L52.84 8.41007C53.17 7.16007 53.8 5.91007 54.56 5.09007C54.86 4.77007 55.24 4.44007 55.71 4.25007C56.16 5.17007 56.24 6.47007 56.24 7.35007ZM54.05 3.13007C54.42 3.13007 54.74 3.21007 55.01 3.39007C54.58 3.60007 54.15 3.93007 53.76 4.36007C52.6756 5.61921 51.9472 7.14512 51.65 8.78007L48.85 9.64007C49.45 7.06007 51.59 3.21007 54.05 3.14007V3.13007Z" fill="#95BF47"/>
<path d="M66.25 8.15988C66.13 8.13988 63.78 8.11988 63.78 8.11988L61.61 5.99988C61.5392 5.92602 61.4423 5.88292 61.34 5.87988V35.0999L70.15 32.9099C70.15 32.9099 66.55 8.60988 66.54 8.42988C66.524 8.35941 66.4865 8.29563 66.4328 8.24728C66.3791 8.19894 66.3118 8.16841 66.24 8.15988H66.25Z" fill="#5E8E3E"/>
<path d="M56.46 12.6899L55.44 16.5199C55.44 16.5199 54.31 15.9899 52.94 16.0899C50.94 16.2099 50.93 17.4599 50.94 17.7899C51.06 19.5099 55.56 19.8799 55.81 23.8899C56.01 27.0499 54.13 29.1999 51.43 29.3799C50.5212 29.4594 49.6057 29.3494 48.7416 29.0568C47.8774 28.7642 47.0835 28.2953 46.41 27.6799L47.1 24.7599C47.1 24.7599 48.9 26.1099 50.32 26.0299C50.4917 26.0263 50.6608 25.9877 50.8171 25.9164C50.9733 25.8452 51.1133 25.7427 51.2285 25.6153C51.3437 25.488 51.4316 25.3384 51.4869 25.1758C51.5422 25.0132 51.5637 24.8411 51.55 24.6699C51.41 22.4399 47.75 22.5599 47.51 18.8999C47.31 15.8099 49.34 12.6899 53.81 12.3999C55.58 12.2399 56.46 12.6899 56.46 12.6899Z" fill="white"/>
<path d="M82.1 20.8601C81.08 20.3101 80.55 19.8401 80.55 19.2001C80.55 18.3701 81.27 17.8501 82.43 17.8501C83.75 17.8501 84.93 18.3901 84.93 18.3901L85.86 15.5401C85.86 15.5401 85 14.8801 82.48 14.8801C78.97 14.8801 76.52 16.8901 76.52 19.7201C76.52 21.3201 77.66 22.5601 79.18 23.4401C80.41 24.1401 80.84 24.6301 80.84 25.3701C80.84 26.1301 80.24 26.7401 79.08 26.7401C77.38 26.7401 75.78 25.8601 75.78 25.8601L74.78 28.7101C74.78 28.7101 76.27 29.7101 78.75 29.7101C82.37 29.7101 84.97 27.9301 84.97 24.7301C84.99 22.9901 83.67 21.7601 82.09 20.8601H82.1ZM96.51 14.8401C94.74 14.8401 93.33 15.6801 92.25 16.9701L92.2 16.9501L93.74 8.85007H89.7L85.8 29.4301H89.82L91.17 22.4001C91.7 19.7401 93.07 18.1001 94.35 18.1001C95.25 18.1001 95.6 18.7001 95.6 19.5901C95.6 20.1301 95.55 20.8201 95.43 21.3601L93.9 29.4101H97.93L99.51 21.0901C99.69 20.2101 99.81 19.1601 99.81 18.4701C99.81 16.2301 98.59 14.8401 96.51 14.8401ZM108.92 14.8401C104.08 14.8401 100.87 19.2101 100.87 24.1001C100.87 27.2301 102.81 29.7301 106.42 29.7301C111.17 29.7301 114.39 25.4701 114.39 20.4701C114.37 17.5901 112.67 14.8401 108.92 14.8401ZM106.92 26.6401C105.56 26.6401 104.97 25.4701 104.97 24.0201C104.97 21.7201 106.17 17.9401 108.36 17.9401C109.78 17.9401 110.26 19.1801 110.26 20.3701C110.26 22.8501 109.06 26.6401 106.93 26.6401H106.92ZM124.67 14.8401C121.96 14.8401 120.41 17.2201 120.41 17.2201H120.35L120.59 15.0501H117.03C116.819 16.839 116.545 18.6201 116.21 20.3901L113.41 35.1201H117.44L118.56 29.1601H118.63C118.63 29.1601 119.45 29.6901 121 29.6901C125.73 29.6901 128.81 24.8401 128.81 19.9401C128.83 17.2601 127.62 14.8401 124.67 14.8401ZM120.82 26.7001C119.77 26.7001 119.16 26.1101 119.16 26.1101L119.83 22.3401C120.29 19.8401 121.6 18.1601 123.01 18.1601C124.24 18.1601 124.61 19.2901 124.61 20.3901C124.61 22.9901 123.07 26.6901 120.82 26.6901V26.7001ZM134.58 9.07007C134.274 9.07 133.97 9.1311 133.688 9.2498C133.406 9.3685 133.15 9.54241 132.936 9.7613C132.721 9.9802 132.553 10.2397 132.441 10.5245C132.328 10.8094 132.273 11.1138 132.28 11.4201C132.28 12.6101 133.03 13.4301 134.17 13.4301H134.23C135.48 13.4301 136.57 12.5901 136.59 11.0901C136.59 9.91007 135.81 9.07007 134.58 9.07007ZM128.95 29.4301H132.98L135.71 15.1701H131.65L128.95 29.4301ZM145.95 15.1301H143.15L143.29 14.4701C143.53 13.1001 144.35 11.8701 145.68 11.8701C146.4 11.8701 146.97 12.0701 146.97 12.0701L147.75 8.92007C147.75 8.92007 147.05 8.57007 145.56 8.57007C144.13 8.57007 142.71 8.97007 141.61 9.91007C140.24 11.0901 139.6 12.7701 139.27 14.4701L139.15 15.1301H137.27L136.69 18.1601H138.56L136.43 29.4301H140.46L142.59 18.1601H145.36L145.96 15.1301H145.95ZM155.65 15.1701C155.65 15.1701 153.12 21.5201 151.99 24.9701H151.93C151.85 23.8701 150.93 15.1701 150.93 15.1701H146.71L149.14 28.2801C149.19 28.5801 149.16 28.7501 149.06 28.9501C148.53 29.9203 147.775 30.7499 146.86 31.3701C146.11 31.9201 145.26 32.2701 144.58 32.5001L145.7 35.9201C146.52 35.7501 148.2 35.0801 149.64 33.7301C151.48 32.0101 153.18 29.3601 154.92 25.7401L159.84 15.1701H155.64H155.65Z" fill="black"/>
</g>
<defs>
<clipPath id="clip0_1_321">
<rect width="200" height="40" fill="white"/>
</clipPath>
</defs>
</svg>
