<svg width="200" height="40" viewBox="0 0 200 40" fill="none" xmlns="http://www.w3.org/2000/svg">
<g clip-path="url(#clip0_1_313)">
<path d="M80.95 28.15L82.27 25.09C83.7884 26.1663 85.609 26.7335 87.47 26.71C88.85 26.71 89.72 26.18 89.72 25.37C89.7 23.11 81.44 24.88 81.38 19.22C81.35 16.35 83.91 14.14 87.53 14.14C89.68 14.14 91.83 14.67 93.36 15.89L92.12 19C90.6908 18.0591 89.0301 17.5297 87.32 17.47C86.19 17.47 85.44 18 85.44 18.68C85.46 20.89 93.78 19.68 93.87 25.08C93.87 28.02 91.38 30.08 87.8 30.08C85.19 30.08 82.78 29.46 80.95 28.14M131.59 24C131.177 24.7308 130.533 25.3042 129.76 25.6308C128.987 25.9573 128.127 26.0186 127.315 25.805C126.503 25.5914 125.785 25.115 125.272 24.4502C124.76 23.7853 124.482 22.9695 124.482 22.13C124.482 21.2906 124.76 20.4747 125.272 19.8099C125.785 19.1451 126.503 18.6687 127.315 18.4551C128.127 18.2415 128.987 18.3028 129.76 18.6293C130.533 18.9558 131.177 19.5292 131.59 20.26L135.23 18.24C134.369 16.6976 133.02 15.4845 131.396 14.7909C129.771 14.0973 127.962 13.9624 126.253 14.4073C124.543 14.8522 123.029 15.8517 121.949 17.2493C120.868 18.6469 120.282 20.3635 120.282 22.13C120.282 23.8965 120.868 25.6131 121.949 27.0107C123.029 28.4083 124.543 29.4079 126.253 29.8528C127.962 30.2977 129.771 30.1628 131.396 29.4692C133.02 28.7755 134.369 27.5624 135.23 26.02L131.59 24ZM95.7 7.53003H100.25V29.79H95.7V7.53003ZM137.01 7.53003V29.8H141.57V23.12L146.97 29.8H152.81L145.93 21.87L152.3 14.47H146.72L141.57 20.62V7.53003H137.01ZM113.8 24.03C113.414 24.6201 112.885 25.1035 112.263 25.4356C111.641 25.7676 110.945 25.9377 110.24 25.93C109.23 25.93 108.26 25.5286 107.546 24.8141C106.831 24.0996 106.43 23.1305 106.43 22.12C106.43 21.1096 106.831 20.1405 107.546 19.426C108.26 18.7114 109.23 18.31 110.24 18.31C111.77 18.31 113.14 19.16 113.79 20.27V24.03H113.8ZM113.8 14.46V16.26C113.05 15.01 111.2 14.14 109.26 14.14C105.26 14.14 102.11 17.67 102.11 22.09C102.11 26.52 105.26 30.09 109.26 30.09C111.2 30.09 113.05 29.22 113.79 27.96V29.76H118.35V14.46H113.79H113.8Z" fill="black"/>
<path d="M52.79 24.0002C52.79 24.5535 52.626 25.0945 52.3188 25.5547C52.0116 26.015 51.5749 26.3739 51.0638 26.5861C50.5528 26.7983 49.9903 26.8543 49.4474 26.7471C48.9045 26.6399 48.4056 26.3742 48.0136 25.9836C47.6217 25.593 47.3542 25.095 47.245 24.5525C47.1359 24.0101 47.1899 23.4474 47.4003 22.9356C47.6107 22.4238 47.968 21.9858 48.4271 21.6769C48.8863 21.3681 49.4266 21.2022 49.98 21.2002H52.79V24.0002ZM54.19 24.0002C54.19 23.2549 54.4861 22.5402 55.013 22.0132C55.54 21.4862 56.2547 21.1902 57 21.1902C57.7453 21.1902 58.46 21.4862 58.987 22.0132C59.514 22.5402 59.81 23.2549 59.81 24.0002V31.0202C59.81 31.7654 59.514 32.4802 58.987 33.0072C58.46 33.5341 57.7453 33.8302 57 33.8302C56.2547 33.8302 55.54 33.5341 55.013 33.0072C54.4861 32.4802 54.19 31.7654 54.19 31.0202V24.0102V24.0002Z" fill="#E01E5A"/>
<path d="M57 12.7401C56.4466 12.7381 55.9063 12.5722 55.4471 12.2634C54.988 11.9545 54.6307 11.5165 54.4203 11.0047C54.2099 10.4929 54.1559 9.93025 54.265 9.38776C54.3742 8.84528 54.6416 8.3473 55.0336 7.95671C55.4256 7.56613 55.9245 7.30044 56.4674 7.19321C57.0103 7.08598 57.5728 7.14201 58.0838 7.35423C58.5949 7.56644 59.0316 7.92533 59.3388 8.38557C59.646 8.84581 59.81 9.38676 59.81 9.94012V12.7401H57.01H57ZM57 14.1601C57.7453 14.1601 58.46 14.4562 58.987 14.9832C59.5139 15.5101 59.81 16.2249 59.81 16.9701C59.81 17.7154 59.5139 18.4301 58.987 18.9571C58.46 19.4841 57.7453 19.7801 57 19.7801H49.96C49.2147 19.7801 48.5 19.4841 47.973 18.9571C47.446 18.4301 47.15 17.7154 47.15 16.9701C47.15 16.2249 47.446 15.5101 47.973 14.9832C48.5 14.4562 49.2147 14.1601 49.96 14.1601H57Z" fill="#36C5F0"/>
<path d="M68.26 16.9701C68.26 16.4168 68.424 15.8758 68.7312 15.4156C69.0384 14.9553 69.4751 14.5964 69.9862 14.3842C70.4972 14.172 71.0597 14.116 71.6026 14.2232C72.1454 14.3304 72.6444 14.5961 73.0364 14.9867C73.4283 15.3773 73.6958 15.8753 73.805 16.4178C73.9141 16.9602 73.8601 17.5229 73.6497 18.0347C73.4393 18.5465 73.082 18.9845 72.6229 19.2934C72.1637 19.6022 71.6233 19.7681 71.07 19.7701H68.27V16.9701H68.26ZM66.86 16.9701C66.86 17.7154 66.5639 18.4301 66.037 18.9571C65.51 19.4841 64.7952 19.7801 64.05 19.7801C63.3047 19.7801 62.59 19.4841 62.063 18.9571C61.536 18.4301 61.24 17.7154 61.24 16.9701V9.93012C61.24 9.18486 61.536 8.47012 62.063 7.94315C62.59 7.41617 63.3047 7.12012 64.05 7.12012C64.7952 7.12012 65.51 7.41617 66.037 7.94315C66.5639 8.47012 66.86 9.18486 66.86 9.93012V16.9701Z" fill="#2EB67D"/>
<path d="M64.05 28.2202C64.6033 28.2222 65.1437 28.3881 65.6028 28.6969C66.062 29.0058 66.4193 29.4438 66.6297 29.9556C66.8401 30.4674 66.8941 31.0301 66.785 31.5726C66.6758 32.115 66.4083 32.613 66.0164 33.0036C65.6244 33.3942 65.1254 33.6599 64.5826 33.7671C64.0397 33.8743 63.4772 33.8183 62.9662 33.6061C62.4551 33.3939 62.0184 33.035 61.7112 32.5747C61.404 32.1145 61.24 31.5736 61.24 31.0202V28.2202H64.04H64.05ZM64.05 26.8202C63.3047 26.8202 62.59 26.5241 62.063 25.9972C61.536 25.4702 61.24 24.7555 61.24 24.0102C61.24 23.2649 61.536 22.5502 62.063 22.0232C62.59 21.4962 63.3047 21.2002 64.05 21.2002H71.09C71.8339 21.2002 72.5474 21.4957 73.0734 22.0218C73.5995 22.5478 73.895 23.2613 73.895 24.0052C73.895 24.7491 73.5995 25.4626 73.0734 25.9886C72.5474 26.5147 71.8339 26.8102 71.09 26.8102H64.05V26.8202Z" fill="#ECB22E"/>
</g>
<defs>
<clipPath id="clip0_1_313">
<rect width="200" height="40" fill="white"/>
</clipPath>
</defs>
</svg>
