<svg width="200" height="40" viewBox="0 0 200 40" fill="none" xmlns="http://www.w3.org/2000/svg">
<g clip-path="url(#clip0_1_339)">
<path fill-rule="evenodd" clip-rule="evenodd" d="M71 10L72 10.05C72.7768 10.0678 73.5168 10.3843 74.0663 10.9337C74.6157 11.4832 74.9322 12.2232 74.95 13L75 14L63 26H72L73 26.05C74.65 26.15 75.83 27.35 75.95 29L76 30H61L60 29.95C59.2263 29.9227 58.4918 29.6031 57.9443 29.0557C57.3969 28.5082 57.0773 27.7737 57.05 27L57 26L69 14H60L59 13.95C58.2301 13.9113 57.502 13.5881 56.957 13.043C56.4119 12.498 56.0887 11.7699 56.05 11L56 10H71ZM137 10C139.122 10 141.157 10.8429 142.657 12.3431C144.157 13.8434 145 15.8783 145 18V30L144 29.95C143.226 29.9227 142.492 29.6031 141.944 29.0557C141.397 28.5082 141.077 27.7737 141.05 27L141 26V19L140.95 18C140.963 17.3045 140.802 16.6167 140.48 16C140.128 15.395 139.623 14.8925 139.017 14.5423C138.411 14.192 137.724 14.0062 137.024 14.0031C136.323 14.0001 135.635 14.18 135.025 14.525C134.416 14.8699 133.908 15.3681 133.55 15.97C133.2 16.57 133.1 17.25 133.05 18L133 19V30L132 29.95C131.228 29.918 130.496 29.597 129.949 29.0505C129.403 28.5041 129.082 27.7722 129.05 27L129 26V19L128.95 18C128.944 17.3031 128.773 16.6175 128.45 16C128.101 15.3935 127.598 14.8896 126.993 14.5392C126.387 14.1889 125.7 14.0044 125 14.0044C124.3 14.0044 123.613 14.1889 123.007 14.5392C122.402 14.8896 121.899 15.3935 121.55 16C121.224 16.6163 121.052 17.3027 121.05 18L121 19V26L120.95 27C120.932 27.7768 120.616 28.5168 120.066 29.0663C119.517 29.6157 118.777 29.9322 118 29.95L117 30V10C118 10 119.75 10.5 120.53 11.38C122.138 10.292 124.087 9.82599 126.014 10.0689C127.94 10.3117 129.712 11.2469 131 12.7C131.752 11.8503 132.675 11.1701 133.71 10.7046C134.744 10.2391 135.866 9.99894 137 10ZM85 10H85.32C87.2661 10.0707 89.1494 10.7069 90.7396 11.8309C92.3299 12.9549 93.5582 14.5179 94.2742 16.3288C94.9903 18.1397 95.1632 20.1201 94.7718 22.0277C94.3803 23.9353 93.4414 25.6875 92.07 27.07C90.1921 28.9398 87.65 29.9896 85 29.9896C82.35 29.9896 79.8079 28.9398 77.93 27.07C76.5416 25.6678 75.5981 23.8869 75.2179 21.9506C74.8377 20.0143 75.0376 18.0088 75.7927 16.1857C76.5478 14.3626 77.8244 12.803 79.4624 11.7026C81.1003 10.6022 83.0267 10.0099 85 10ZM106 10C107.974 10.0079 109.902 10.5988 111.541 11.6985C113.181 12.7981 114.459 14.3576 115.215 16.1811C115.972 18.0046 116.172 20.0109 115.793 21.9481C115.413 23.8853 114.469 25.6672 113.08 27.07C111.201 28.9459 108.655 29.9996 106 29.9996C103.345 29.9996 100.799 28.9459 98.92 27.07C97.531 25.6672 96.5873 23.8853 96.2074 21.9481C95.8276 20.0109 96.0284 18.0046 96.7847 16.1811C97.541 14.3576 98.8191 12.7981 100.459 11.6985C102.098 10.5988 104.026 10.0079 106 10ZM89.25 15.78C88.6945 15.2228 88.0344 14.7806 87.3077 14.479C86.581 14.1773 85.8019 14.022 85.015 14.022C84.2281 14.022 83.449 14.1773 82.7223 14.479C81.9956 14.7806 81.3355 15.2228 80.78 15.78C80.2228 16.3355 79.7806 16.9956 79.479 17.7223C79.1773 18.449 79.022 19.2282 79.022 20.015C79.022 20.8019 79.1773 21.581 79.479 22.3077C79.7806 23.0344 80.2228 23.6945 80.78 24.25C81.3355 24.8072 81.9956 25.2494 82.7223 25.5511C83.449 25.8527 84.2281 26.008 85.015 26.008C85.8019 26.008 86.581 25.8527 87.3077 25.5511C88.0344 25.2494 88.6945 24.8072 89.25 24.25C90.3657 23.1229 90.9915 21.601 90.9915 20.015C90.9915 18.429 90.3657 16.9072 89.25 15.78ZM110.25 15.78C109.694 15.2228 109.034 14.7806 108.308 14.479C107.581 14.1773 106.802 14.022 106.015 14.022C105.228 14.022 104.449 14.1773 103.722 14.479C102.996 14.7806 102.336 15.2228 101.78 15.78C101.223 16.3355 100.781 16.9956 100.479 17.7223C100.177 18.449 100.022 19.2282 100.022 20.015C100.022 20.8019 100.177 21.581 100.479 22.3077C100.781 23.0344 101.223 23.6945 101.78 24.25C102.336 24.8072 102.996 25.2494 103.722 25.5511C104.449 25.8527 105.228 26.008 106.015 26.008C106.802 26.008 107.581 25.8527 108.308 25.5511C109.034 25.2494 109.694 24.8072 110.25 24.25C111.366 23.1229 111.992 21.601 111.992 20.015C111.992 18.429 111.366 16.9072 110.25 15.78Z" fill="#2D8CFF"/>
</g>
<defs>
<clipPath id="clip0_1_339">
<rect width="200" height="40" fill="white"/>
</clipPath>
</defs>
</svg>
