<svg width="748" height="582" viewBox="0 0 748 582" fill="none" xmlns="http://www.w3.org/2000/svg">
<g filter="url(#filter0_dd_1_393)">
<g clip-path="url(#clip0_1_393)">
<rect x="80" y="30" width="588" height="422" rx="8" fill="#F6F9FC"/>
<g clip-path="url(#clip1_1_393)">
<g clip-path="url(#clip2_1_393)">
<rect width="590" height="410.143" transform="matrix(0.978148 -0.207912 0 1 79.0219 -95.9879)" fill="#611F69"/>
</g>
<g filter="url(#filter1_dd_1_393)">
<g clip-path="url(#clip3_1_393)">
<rect x="184" y="83" width="380" height="316" rx="6" fill="white"/>
<g filter="url(#filter2_dd_1_393)">
<g clip-path="url(#clip4_1_393)">
<rect x="344" y="63" width="60" height="60" rx="30" fill="white"/>
<path d="M365.27 96.76C365.27 97.3771 365.087 97.9803 364.744 98.4934C364.401 99.0065 363.914 99.4064 363.344 99.6425C362.774 99.8787 362.147 99.9405 361.541 99.8201C360.936 99.6997 360.38 99.4025 359.944 98.9662C359.507 98.5298 359.21 97.9739 359.09 97.3687C358.97 96.7635 359.031 96.1361 359.267 95.566C359.504 94.9959 359.904 94.5087 360.417 94.1658C360.93 93.823 361.533 93.64 362.15 93.64H365.27V96.76ZM366.83 96.76C366.83 95.9325 367.159 95.139 367.744 94.5538C368.329 93.9687 369.123 93.64 369.95 93.64C370.777 93.64 371.571 93.9687 372.156 94.5538C372.741 95.139 373.07 95.9325 373.07 96.76V104.56C373.07 105.387 372.741 106.181 372.156 106.766C371.571 107.351 370.777 107.68 369.95 107.68C369.123 107.68 368.329 107.351 367.744 106.766C367.159 106.181 366.83 105.387 366.83 104.56V96.76Z" fill="#E01E5A"/>
<path d="M369.95 84.24C369.333 84.24 368.73 84.057 368.217 83.7142C367.704 83.3714 367.304 82.8841 367.067 82.314C366.831 81.7439 366.77 81.1165 366.89 80.5113C367.01 79.9061 367.307 79.3502 367.744 78.9138C368.18 78.4775 368.736 78.1803 369.341 78.06C369.947 77.9396 370.574 78.0014 371.144 78.2375C371.714 78.4736 372.201 78.8735 372.544 79.3866C372.887 79.8997 373.07 80.5029 373.07 81.12V84.24H369.95ZM369.95 85.82C370.777 85.82 371.571 86.1487 372.156 86.7338C372.741 87.3189 373.07 88.1125 373.07 88.94C373.07 89.7675 372.741 90.5611 372.156 91.1462C371.571 91.7313 370.777 92.06 369.95 92.06H362.12C361.293 92.06 360.499 91.7313 359.914 91.1462C359.329 90.5611 359 89.7675 359 88.94C359 88.1125 359.329 87.3189 359.914 86.7338C360.499 86.1487 361.293 85.82 362.12 85.82H369.95Z" fill="#36C5F0"/>
<path d="M382.46 88.94C382.46 88.3229 382.643 87.7197 382.986 87.2066C383.329 86.6935 383.816 86.2936 384.386 86.0575C384.956 85.8213 385.583 85.7596 386.189 85.8799C386.794 86.0003 387.35 86.2975 387.786 86.7338C388.223 87.1702 388.52 87.7261 388.64 88.3313C388.76 88.9365 388.699 89.5639 388.463 90.134C388.226 90.7041 387.826 91.1914 387.313 91.5342C386.8 91.877 386.197 92.06 385.58 92.06H382.46V88.94ZM380.9 88.94C380.9 89.7675 380.571 90.5611 379.986 91.1462C379.401 91.7313 378.607 92.06 377.78 92.06C376.953 92.06 376.159 91.7313 375.574 91.1462C374.989 90.5611 374.66 89.7675 374.66 88.94V81.12C374.66 80.2925 374.989 79.4989 375.574 78.9138C376.159 78.3287 376.953 78 377.78 78C378.607 78 379.401 78.3287 379.986 78.9138C380.571 79.4989 380.9 80.2925 380.9 81.12V88.94Z" fill="#2EB67D"/>
<path d="M377.78 101.43C378.397 101.43 379 101.613 379.513 101.956C380.026 102.299 380.426 102.786 380.662 103.356C380.899 103.926 380.96 104.553 380.84 105.159C380.72 105.764 380.423 106.32 379.986 106.756C379.55 107.193 378.994 107.49 378.389 107.61C377.783 107.73 377.156 107.669 376.586 107.433C376.016 107.196 375.529 106.796 375.186 106.283C374.843 105.77 374.66 105.167 374.66 104.55V101.43H377.78ZM377.78 99.87C377.356 99.894 376.932 99.8313 376.533 99.6856C376.134 99.5399 375.769 99.3144 375.461 99.0227C375.152 98.7311 374.906 98.3796 374.738 97.9897C374.57 97.5997 374.483 97.1796 374.483 96.755C374.483 96.3304 374.57 95.9103 374.738 95.5204C374.906 95.1304 375.152 94.7789 375.461 94.4873C375.769 94.1957 376.134 93.9701 376.533 93.8244C376.932 93.6787 377.356 93.616 377.78 93.64H385.61C386.034 93.616 386.458 93.6787 386.857 93.8244C387.256 93.9701 387.621 94.1957 387.929 94.4873C388.238 94.7789 388.484 95.1304 388.652 95.5204C388.82 95.9103 388.907 96.3304 388.907 96.755C388.907 97.1796 388.82 97.5997 388.652 97.9897C388.484 98.3796 388.238 98.7311 387.929 99.0227C387.621 99.3144 387.256 99.5399 386.857 99.6856C386.458 99.8313 386.034 99.894 385.61 99.87H377.78Z" fill="#ECB22E"/>
</g>
</g>
<path d="M320.297 149V139.694H321.306V149H320.297ZM323.138 149V142.259H323.982V143.217C324.185 142.845 324.432 142.568 324.724 142.386C325.021 142.2 325.359 142.106 325.74 142.106C326.036 142.106 326.309 142.166 326.559 142.284C326.813 142.398 327.016 142.551 327.168 142.741C327.325 142.927 327.441 143.171 327.517 143.471C327.594 143.772 327.632 144.233 327.632 144.855V149H326.692V144.899C326.692 144.404 326.65 144.042 326.565 143.814C326.481 143.585 326.347 143.41 326.165 143.287C325.988 143.16 325.78 143.097 325.543 143.097C325.095 143.097 324.737 143.264 324.471 143.598C324.204 143.932 324.071 144.506 324.071 145.318V149H323.138ZM330.815 149L328.714 142.259H329.704L330.891 146.296C331.027 146.753 331.145 147.206 331.247 147.654C331.327 147.299 331.441 146.871 331.589 146.372L332.821 142.259H333.786L331.691 149H330.815ZM334.449 145.629C334.449 144.466 334.692 143.588 335.179 142.995C335.67 142.403 336.29 142.106 337.039 142.106C337.775 142.106 338.391 142.403 338.886 142.995C339.381 143.588 339.629 144.442 339.629 145.56C339.629 146.77 339.385 147.671 338.899 148.264C338.412 148.856 337.792 149.152 337.039 149.152C336.298 149.152 335.681 148.856 335.185 148.264C334.695 147.667 334.449 146.789 334.449 145.629ZM335.408 145.629C335.408 146.501 335.566 147.151 335.884 147.578C336.201 148.001 336.595 148.213 337.064 148.213C337.504 148.213 337.881 147.999 338.194 147.572C338.512 147.14 338.67 146.493 338.67 145.629C338.67 144.762 338.512 144.117 338.194 143.693C337.877 143.266 337.483 143.052 337.014 143.052C336.569 143.052 336.19 143.266 335.877 143.693C335.564 144.121 335.408 144.766 335.408 145.629ZM340.927 141.008V139.694H341.86V141.008H340.927ZM340.927 149V142.259H341.86V149H340.927ZM347.125 146.531L348.046 146.677C347.94 147.481 347.674 148.094 347.246 148.518C346.823 148.941 346.313 149.152 345.716 149.152C344.993 149.152 344.396 148.856 343.926 148.264C343.461 147.667 343.228 146.787 343.228 145.623C343.228 144.451 343.463 143.573 343.933 142.989C344.407 142.401 345.014 142.106 345.754 142.106C346.326 142.106 346.806 142.284 347.195 142.64C347.589 142.995 347.841 143.528 347.951 144.239L347.043 144.411C346.954 143.954 346.8 143.613 346.58 143.389C346.36 143.16 346.095 143.046 345.786 143.046C345.325 143.046 344.942 143.251 344.637 143.662C344.337 144.068 344.187 144.715 344.187 145.604C344.187 146.522 344.33 147.187 344.618 147.597C344.91 148.008 345.283 148.213 345.735 148.213C346.091 148.213 346.393 148.077 346.643 147.807C346.897 147.532 347.058 147.106 347.125 146.531ZM352.816 146.829L353.781 146.975C353.62 147.694 353.328 148.238 352.905 148.606C352.486 148.97 351.966 149.152 351.344 149.152C350.561 149.152 349.926 148.856 349.439 148.264C348.957 147.667 348.716 146.808 348.716 145.687C348.716 144.523 348.959 143.636 349.446 143.027C349.936 142.413 350.556 142.106 351.305 142.106C352.021 142.106 352.617 142.407 353.096 143.008C353.574 143.609 353.813 144.478 353.813 145.617L353.806 145.921H349.68C349.719 146.679 349.894 147.25 350.207 147.635C350.52 148.02 350.901 148.213 351.35 148.213C352.052 148.213 352.541 147.752 352.816 146.829ZM349.738 144.982H352.823C352.78 144.398 352.655 143.962 352.448 143.674C352.148 143.255 351.765 143.046 351.299 143.046C350.88 143.046 350.523 143.222 350.226 143.573C349.93 143.92 349.767 144.389 349.738 144.982ZM358.599 149V143.147H357.767V142.259H358.599V141.542C358.599 141.013 358.654 140.617 358.764 140.354C358.874 140.088 359.041 139.885 359.266 139.745C359.494 139.605 359.78 139.536 360.122 139.536C360.389 139.536 360.681 139.574 360.998 139.65L360.859 140.646C360.664 140.604 360.48 140.583 360.307 140.583C360.027 140.583 359.826 140.657 359.704 140.805C359.585 140.949 359.526 141.226 359.526 141.637V142.259H360.605V143.147H359.526V149H358.599ZM361.503 149V142.259H362.347V143.281C362.563 142.807 362.76 142.494 362.938 142.341C363.12 142.185 363.323 142.106 363.547 142.106C363.86 142.106 364.18 142.229 364.506 142.475L364.188 143.535C363.955 143.37 363.729 143.287 363.509 143.287C363.31 143.287 363.128 143.357 362.963 143.497C362.798 143.636 362.682 143.831 362.614 144.081C362.495 144.516 362.436 144.98 362.436 145.471V149H361.503ZM364.909 145.629C364.909 144.466 365.152 143.588 365.639 142.995C366.13 142.403 366.75 142.106 367.499 142.106C368.235 142.106 368.851 142.403 369.346 142.995C369.841 143.588 370.088 144.442 370.088 145.56C370.088 146.77 369.845 147.671 369.358 148.264C368.872 148.856 368.252 149.152 367.499 149.152C366.758 149.152 366.14 148.856 365.645 148.264C365.154 147.667 364.909 146.789 364.909 145.629ZM365.867 145.629C365.867 146.501 366.026 147.151 366.343 147.578C366.661 148.001 367.054 148.213 367.524 148.213C367.964 148.213 368.341 147.999 368.654 147.572C368.971 147.14 369.13 146.493 369.13 145.629C369.13 144.762 368.971 144.117 368.654 143.693C368.336 143.266 367.943 143.052 367.473 143.052C367.029 143.052 366.65 143.266 366.337 143.693C366.024 144.121 365.867 144.766 365.867 145.629ZM371.399 149V142.259H372.237V143.205C372.423 142.853 372.662 142.583 372.954 142.392C373.246 142.202 373.566 142.106 373.913 142.106C374.302 142.106 374.63 142.208 374.897 142.411C375.168 142.61 375.36 142.902 375.474 143.287C375.694 142.894 375.946 142.599 376.23 142.405C376.518 142.206 376.835 142.106 377.182 142.106C377.711 142.106 378.128 142.286 378.432 142.646C378.737 143.006 378.889 143.581 378.889 144.373V149H377.956V144.753C377.956 144.271 377.92 143.93 377.848 143.731C377.781 143.528 377.669 143.372 377.512 143.262C377.355 143.152 377.18 143.097 376.985 143.097C376.583 143.097 376.255 143.257 376.001 143.579C375.747 143.896 375.62 144.398 375.62 145.083V149H374.681V144.62C374.681 144.062 374.594 143.668 374.421 143.439C374.251 143.211 374.017 143.097 373.716 143.097C373.289 143.097 372.95 143.27 372.7 143.617C372.455 143.96 372.332 144.588 372.332 145.502V149H371.399ZM383.441 146.01L384.393 145.909C384.444 146.421 384.558 146.821 384.736 147.108C384.918 147.392 385.176 147.62 385.51 147.794C385.844 147.967 386.221 148.054 386.64 148.054C387.241 148.054 387.706 147.908 388.037 147.616C388.371 147.32 388.538 146.937 388.538 146.467C388.538 146.192 388.477 145.953 388.354 145.75C388.235 145.543 388.053 145.373 387.808 145.242C387.567 145.111 387.042 144.927 386.234 144.69C385.514 144.478 385.002 144.265 384.698 144.049C384.393 143.833 384.156 143.56 383.987 143.23C383.817 142.896 383.733 142.519 383.733 142.1C383.733 141.347 383.976 140.731 384.463 140.253C384.949 139.775 385.605 139.536 386.431 139.536C386.998 139.536 387.493 139.648 387.916 139.872C388.343 140.096 388.673 140.418 388.906 140.837C389.143 141.256 389.27 141.749 389.287 142.316L388.316 142.405C388.265 141.8 388.083 141.351 387.77 141.059C387.461 140.767 387.025 140.621 386.462 140.621C385.891 140.621 385.455 140.75 385.155 141.008C384.854 141.262 384.704 141.592 384.704 141.999C384.704 142.375 384.814 142.667 385.034 142.875C385.254 143.082 385.749 143.291 386.519 143.503C387.273 143.71 387.802 143.89 388.106 144.042C388.572 144.279 388.923 144.593 389.16 144.982C389.397 145.367 389.516 145.828 389.516 146.366C389.516 146.899 389.391 147.386 389.141 147.826C388.891 148.262 388.551 148.594 388.119 148.822C387.692 149.051 387.175 149.165 386.57 149.165C385.627 149.165 384.873 148.882 384.31 148.314C383.752 147.747 383.462 146.979 383.441 146.01ZM390.928 149V139.694H391.861V149H390.928ZM397.133 148.168C396.82 148.494 396.494 148.74 396.155 148.905C395.817 149.07 395.465 149.152 395.102 149.152C394.526 149.152 394.067 148.979 393.724 148.632C393.381 148.285 393.21 147.817 393.21 147.229C393.21 146.84 393.29 146.495 393.451 146.194C393.612 145.894 393.832 145.659 394.111 145.49C394.391 145.32 394.814 145.196 395.381 145.115C396.143 145.005 396.701 144.874 397.057 144.722L397.063 144.43C397.063 143.968 396.98 143.645 396.815 143.458C396.583 143.188 396.225 143.052 395.743 143.052C395.307 143.052 394.981 143.143 394.765 143.325C394.549 143.503 394.391 143.839 394.289 144.334L393.369 144.182C393.5 143.458 393.764 142.932 394.162 142.602C394.564 142.271 395.138 142.106 395.882 142.106C396.462 142.106 396.917 142.216 397.247 142.437C397.577 142.652 397.785 142.921 397.869 143.243C397.958 143.564 398.002 144.034 398.002 144.652V146.175C398.002 147.242 398.021 147.915 398.06 148.194C398.102 148.469 398.182 148.738 398.301 149H397.323C397.226 148.767 397.162 148.49 397.133 148.168ZM397.057 145.617C396.714 145.786 396.204 145.93 395.527 146.048C395.133 146.116 394.858 146.194 394.702 146.283C394.545 146.368 394.422 146.491 394.333 146.651C394.249 146.808 394.207 146.99 394.207 147.197C394.207 147.519 394.306 147.777 394.505 147.972C394.704 148.162 394.979 148.257 395.33 148.257C395.664 148.257 395.967 148.171 396.238 147.997C396.513 147.824 396.718 147.593 396.854 147.305C396.989 147.013 397.057 146.59 397.057 146.036V145.617ZM403.281 146.531L404.201 146.677C404.095 147.481 403.829 148.094 403.401 148.518C402.978 148.941 402.468 149.152 401.871 149.152C401.148 149.152 400.551 148.856 400.081 148.264C399.616 147.667 399.383 146.787 399.383 145.623C399.383 144.451 399.618 143.573 400.088 142.989C400.562 142.401 401.169 142.106 401.909 142.106C402.481 142.106 402.961 142.284 403.35 142.64C403.744 142.995 403.996 143.528 404.106 144.239L403.198 144.411C403.109 143.954 402.955 143.613 402.735 143.389C402.515 143.16 402.25 143.046 401.941 143.046C401.48 143.046 401.097 143.251 400.792 143.662C400.492 144.068 400.342 144.715 400.342 145.604C400.342 146.522 400.485 147.187 400.773 147.597C401.065 148.008 401.438 148.213 401.89 148.213C402.246 148.213 402.548 148.077 402.798 147.807C403.052 147.532 403.213 147.106 403.281 146.531ZM405.213 149V139.694H406.147V145.001L408.368 142.259H409.581L407.467 144.76L409.79 149H408.641L406.807 145.553L406.147 146.328V149H405.213Z" fill="#0A2540"/>
<path d="M321.306 169V159.694H324.169C324.749 159.694 325.208 159.785 325.546 159.967C325.885 160.145 326.162 160.424 326.378 160.805C326.594 161.186 326.702 161.607 326.702 162.068C326.702 162.496 326.608 162.881 326.422 163.224C326.236 163.566 325.974 163.841 325.635 164.049C326.079 164.21 326.429 164.485 326.683 164.874C326.941 165.259 327.07 165.735 327.07 166.302C327.07 166.865 326.953 167.36 326.721 167.788C326.492 168.211 326.185 168.52 325.8 168.714C325.415 168.905 324.886 169 324.213 169H321.306ZM322.315 163.604H323.966C324.397 163.604 324.704 163.575 324.886 163.516C325.149 163.427 325.35 163.279 325.489 163.071C325.633 162.86 325.705 162.574 325.705 162.214C325.705 161.88 325.639 161.603 325.508 161.383C325.381 161.159 325.21 161.004 324.994 160.919C324.782 160.835 324.399 160.792 323.845 160.792H322.315V163.604ZM322.315 167.902H324.213C324.632 167.902 324.941 167.864 325.14 167.788C325.428 167.678 325.646 167.498 325.794 167.248C325.946 166.994 326.022 166.677 326.022 166.296C326.022 165.945 325.95 165.648 325.807 165.407C325.663 165.162 325.468 164.984 325.223 164.874C324.981 164.76 324.6 164.703 324.08 164.703H322.315V167.902ZM328.514 161.008V159.694H329.447V161.008H328.514ZM328.514 169V162.259H329.447V169H328.514ZM331.062 169V159.694H331.996V169H331.062ZM333.637 169V159.694H334.57V169H333.637ZM340.019 166.829L340.984 166.975C340.823 167.694 340.531 168.238 340.108 168.606C339.689 168.97 339.169 169.152 338.546 169.152C337.764 169.152 337.129 168.856 336.642 168.264C336.16 167.667 335.919 166.808 335.919 165.687C335.919 164.523 336.162 163.636 336.649 163.027C337.139 162.413 337.759 162.106 338.508 162.106C339.224 162.106 339.82 162.407 340.298 163.008C340.777 163.609 341.016 164.478 341.016 165.617L341.009 165.921H336.883C336.921 166.679 337.097 167.25 337.41 167.635C337.723 168.02 338.104 168.213 338.553 168.213C339.255 168.213 339.744 167.752 340.019 166.829ZM336.941 164.982H340.025C339.983 164.398 339.858 163.962 339.651 163.674C339.351 163.255 338.968 163.046 338.502 163.046C338.083 163.046 337.726 163.222 337.429 163.573C337.133 163.92 336.97 164.389 336.941 164.982ZM345.951 169V168.149C345.782 168.475 345.564 168.725 345.297 168.898C345.031 169.068 344.743 169.152 344.434 169.152C343.782 169.152 343.217 168.846 342.739 168.232C342.265 167.614 342.028 166.747 342.028 165.629C342.028 164.863 342.134 164.214 342.346 163.681C342.557 163.147 342.839 162.752 343.19 162.494C343.545 162.236 343.939 162.106 344.371 162.106C344.679 162.106 344.965 162.189 345.227 162.354C345.494 162.515 345.714 162.741 345.888 163.033V159.694H346.827V169H345.951ZM342.987 165.636C342.987 166.507 343.137 167.155 343.437 167.578C343.742 168.001 344.095 168.213 344.497 168.213C344.895 168.213 345.24 168.01 345.532 167.604C345.824 167.197 345.97 166.584 345.97 165.763C345.97 164.819 345.824 164.131 345.532 163.7C345.24 163.264 344.872 163.046 344.428 163.046C344.034 163.046 343.696 163.255 343.412 163.674C343.128 164.089 342.987 164.743 342.987 165.636ZM353.752 167.978L353.879 168.987C353.621 169.055 353.389 169.089 353.181 169.089C352.855 169.089 352.593 169.025 352.394 168.898C352.195 168.767 352.058 168.59 351.981 168.365C351.91 168.141 351.874 167.694 351.874 167.026V163.147H351.188V162.259H351.874V160.589L352.807 159.904V162.259H353.752V163.147H352.807V167.089C352.807 167.453 352.834 167.688 352.889 167.794C352.97 167.946 353.12 168.022 353.34 168.022C353.446 168.022 353.583 168.008 353.752 167.978ZM354.486 165.629C354.486 164.466 354.729 163.588 355.216 162.995C355.707 162.403 356.326 162.106 357.075 162.106C357.812 162.106 358.428 162.403 358.923 162.995C359.418 163.588 359.665 164.442 359.665 165.56C359.665 166.77 359.422 167.671 358.935 168.264C358.449 168.856 357.829 169.152 357.075 169.152C356.335 169.152 355.717 168.856 355.222 168.264C354.731 167.667 354.486 166.789 354.486 165.629ZM355.444 165.629C355.444 166.501 355.603 167.151 355.92 167.578C356.238 168.001 356.631 168.213 357.101 168.213C357.541 168.213 357.918 167.999 358.231 167.572C358.548 167.14 358.707 166.493 358.707 165.629C358.707 164.762 358.548 164.117 358.231 163.693C357.913 163.266 357.52 163.052 357.05 163.052C356.606 163.052 356.227 163.266 355.914 163.693C355.601 164.121 355.444 164.766 355.444 165.629ZM363.734 166.359L364.642 166.207C364.667 166.918 364.777 167.405 364.972 167.667C365.167 167.929 365.435 168.061 365.778 168.061C366.019 168.061 366.231 167.995 366.413 167.864C366.599 167.728 366.724 167.559 366.787 167.356C366.876 167.081 366.921 166.664 366.921 166.105V159.694H367.93V166.036C367.93 167.178 367.742 167.984 367.365 168.454C366.993 168.924 366.466 169.159 365.785 169.159C365.12 169.159 364.625 168.947 364.299 168.524C363.923 168.042 363.734 167.32 363.734 166.359ZM373.449 166.829L374.414 166.975C374.253 167.694 373.961 168.238 373.538 168.606C373.119 168.97 372.599 169.152 371.977 169.152C371.194 169.152 370.559 168.856 370.072 168.264C369.59 167.667 369.349 166.808 369.349 165.687C369.349 164.523 369.592 163.636 370.079 163.027C370.57 162.413 371.19 162.106 371.939 162.106C372.654 162.106 373.251 162.407 373.729 163.008C374.207 163.609 374.446 164.478 374.446 165.617L374.44 165.921H370.314C370.352 166.679 370.527 167.25 370.841 167.635C371.154 168.02 371.535 168.213 371.983 168.213C372.686 168.213 373.174 167.752 373.449 166.829ZM370.371 164.982H373.456C373.413 164.398 373.289 163.962 373.081 163.674C372.781 163.255 372.398 163.046 371.932 163.046C371.513 163.046 371.156 163.222 370.86 163.573C370.563 163.92 370.4 164.389 370.371 164.982ZM375.795 169V162.259H376.639V163.217C376.842 162.845 377.09 162.568 377.382 162.386C377.678 162.2 378.017 162.106 378.397 162.106C378.694 162.106 378.967 162.166 379.216 162.284C379.47 162.398 379.673 162.551 379.826 162.741C379.982 162.927 380.099 163.171 380.175 163.471C380.251 163.772 380.289 164.233 380.289 164.855V169H379.35V164.899C379.35 164.404 379.307 164.042 379.223 163.814C379.138 163.585 379.005 163.41 378.823 163.287C378.645 163.16 378.438 163.097 378.201 163.097C377.752 163.097 377.395 163.264 377.128 163.598C376.861 163.932 376.728 164.506 376.728 165.318V169H375.795ZM381.924 169V162.259H382.768V163.217C382.971 162.845 383.219 162.568 383.511 162.386C383.807 162.2 384.145 162.106 384.526 162.106C384.822 162.106 385.095 162.166 385.345 162.284C385.599 162.398 385.802 162.551 385.954 162.741C386.111 162.927 386.227 163.171 386.304 163.471C386.38 163.772 386.418 164.233 386.418 164.855V169H385.478V164.899C385.478 164.404 385.436 164.042 385.351 163.814C385.267 163.585 385.133 163.41 384.951 163.287C384.774 163.16 384.566 163.097 384.329 163.097C383.881 163.097 383.523 163.264 383.257 163.598C382.99 163.932 382.857 164.506 382.857 165.318V169H381.924ZM388.027 171.596L387.925 170.523C388.133 170.591 388.31 170.625 388.459 170.625C388.657 170.625 388.82 170.585 388.947 170.504C389.079 170.424 389.186 170.299 389.271 170.13C389.301 170.071 389.423 169.698 389.639 169.013L387.538 162.259H388.547L389.703 166.163C389.847 166.649 389.98 167.17 390.103 167.724C390.208 167.199 390.335 166.687 390.483 166.188L391.664 162.259H392.604L390.503 169.114C390.227 170.003 390.01 170.595 389.849 170.892C389.692 171.192 389.512 171.408 389.309 171.539C389.11 171.67 388.884 171.736 388.63 171.736C388.452 171.736 388.251 171.689 388.027 171.596ZM396.888 169V159.694H400.272C400.978 159.694 401.499 159.781 401.833 159.955C402.172 160.128 402.449 160.418 402.665 160.824C402.881 161.226 402.988 161.694 402.988 162.227C402.988 162.93 402.804 163.499 402.436 163.935C402.072 164.37 401.541 164.648 400.843 164.766C401.126 164.935 401.342 165.107 401.49 165.28C401.791 165.636 402.055 166.031 402.284 166.467L403.617 169H402.347L401.332 167.064C400.938 166.306 400.64 165.797 400.437 165.534C400.238 165.272 400.043 165.096 399.853 165.007C399.667 164.914 399.404 164.868 399.066 164.868H397.898V169H396.888ZM397.898 163.801H400.069C400.543 163.801 400.902 163.744 401.148 163.63C401.393 163.516 401.588 163.336 401.732 163.09C401.876 162.845 401.947 162.559 401.947 162.233C401.947 161.764 401.81 161.396 401.535 161.129C401.26 160.858 400.851 160.723 400.31 160.723H397.898V163.801ZM404.299 165.629C404.299 164.466 404.543 163.588 405.029 162.995C405.52 162.403 406.14 162.106 406.889 162.106C407.625 162.106 408.241 162.403 408.736 162.995C409.231 163.588 409.479 164.442 409.479 165.56C409.479 166.77 409.236 167.671 408.749 168.264C408.262 168.856 407.642 169.152 406.889 169.152C406.149 169.152 405.531 168.856 405.036 168.264C404.545 167.667 404.299 166.789 404.299 165.629ZM405.258 165.629C405.258 166.501 405.417 167.151 405.734 167.578C406.051 168.001 406.445 168.213 406.915 168.213C407.355 168.213 407.731 167.999 408.044 167.572C408.362 167.14 408.521 166.493 408.521 165.629C408.521 164.762 408.362 164.117 408.044 163.693C407.727 163.266 407.333 163.052 406.864 163.052C406.419 163.052 406.041 163.266 405.728 163.693C405.414 164.121 405.258 164.766 405.258 165.629ZM410.422 166.988L411.348 166.81C411.403 167.284 411.554 167.637 411.799 167.87C412.045 168.099 412.37 168.213 412.777 168.213C413.183 168.213 413.496 168.113 413.716 167.915C413.94 167.711 414.053 167.455 414.053 167.146C414.053 166.88 413.957 166.673 413.767 166.524C413.636 166.423 413.318 166.296 412.815 166.144C412.087 165.919 411.6 165.729 411.355 165.572C411.109 165.416 410.919 165.206 410.783 164.944C410.648 164.681 410.58 164.383 410.58 164.049C410.58 163.473 410.764 163.006 411.133 162.646C411.501 162.286 412.011 162.106 412.662 162.106C413.073 162.106 413.433 162.181 413.742 162.329C414.055 162.477 414.294 162.676 414.459 162.925C414.624 163.175 414.738 163.533 414.802 163.998L413.887 164.15C413.803 163.414 413.403 163.046 412.688 163.046C412.282 163.046 411.979 163.128 411.78 163.293C411.581 163.454 411.482 163.662 411.482 163.916C411.482 164.165 411.577 164.362 411.767 164.506C411.882 164.59 412.22 164.726 412.783 164.912C413.557 165.162 414.059 165.361 414.287 165.509C414.516 165.653 414.694 165.852 414.821 166.105C414.948 166.355 415.011 166.653 415.011 167C415.011 167.644 414.806 168.164 414.395 168.562C413.989 168.96 413.433 169.159 412.726 169.159C411.401 169.159 410.633 168.435 410.422 166.988ZM420.092 166.829L421.057 166.975C420.896 167.694 420.604 168.238 420.181 168.606C419.762 168.97 419.242 169.152 418.62 169.152C417.837 169.152 417.202 168.856 416.715 168.264C416.233 167.667 415.992 166.808 415.992 165.687C415.992 164.523 416.235 163.636 416.722 163.027C417.213 162.413 417.833 162.106 418.582 162.106C419.297 162.106 419.893 162.407 420.372 163.008C420.85 163.609 421.089 164.478 421.089 165.617L421.083 165.921H416.957C416.995 166.679 417.17 167.25 417.483 167.635C417.797 168.02 418.178 168.213 418.626 168.213C419.329 168.213 419.817 167.752 420.092 166.829ZM417.014 164.982H420.099C420.056 164.398 419.932 163.962 419.724 163.674C419.424 163.255 419.041 163.046 418.575 163.046C418.156 163.046 417.799 163.222 417.503 163.573C417.206 163.92 417.043 164.389 417.014 164.982ZM422.438 169V162.259H423.282V163.217C423.485 162.845 423.733 162.568 424.025 162.386C424.321 162.2 424.66 162.106 425.04 162.106C425.337 162.106 425.61 162.166 425.859 162.284C426.113 162.398 426.316 162.551 426.469 162.741C426.625 162.927 426.742 163.171 426.818 163.471C426.894 163.772 426.932 164.233 426.932 164.855V169H425.993V164.899C425.993 164.404 425.95 164.042 425.866 163.814C425.781 163.585 425.648 163.41 425.466 163.287C425.288 163.16 425.081 163.097 424.844 163.097C424.395 163.097 424.037 163.264 423.771 163.598C423.504 163.932 423.371 164.506 423.371 165.318V169H422.438Z" fill="#425466"/>
<path d="M184 191H564V393C564 396.314 561.314 399 558 399H190C186.686 399 184 396.314 184 393V191Z" fill="#F6F9FC"/>
<path d="M314.93 222.339V221.197C314.422 221.116 314.022 220.975 313.73 220.771C313.438 220.564 313.195 220.262 313 219.864C312.805 219.466 312.691 218.984 312.657 218.417L313.603 218.201C313.684 218.886 313.844 219.388 314.086 219.705C314.331 220.018 314.612 220.194 314.93 220.232V216.595C314.515 216.502 314.105 216.307 313.698 216.011C313.428 215.816 313.214 215.545 313.057 215.198C312.901 214.847 312.822 214.439 312.822 213.973C312.822 213.495 312.911 213.061 313.089 212.672C313.267 212.278 313.499 211.98 313.787 211.777C314.075 211.574 314.456 211.443 314.93 211.383V210.837H315.488V211.383C315.882 211.43 316.212 211.542 316.479 211.72C316.749 211.897 316.976 212.149 317.158 212.475C317.34 212.797 317.46 213.197 317.52 213.675L316.555 213.853C316.449 213.002 316.094 212.5 315.488 212.348V215.643C315.916 215.774 316.191 215.869 316.314 215.928C316.593 216.059 316.834 216.233 317.037 216.449C317.245 216.665 317.407 216.935 317.526 217.261C317.649 217.583 317.71 217.947 317.71 218.353C317.71 219.178 317.496 219.847 317.069 220.359C316.642 220.871 316.115 221.146 315.488 221.184V222.339H314.93ZM314.93 212.335C314.574 212.403 314.289 212.577 314.073 212.856C313.861 213.135 313.755 213.493 313.755 213.929C313.755 214.682 314.147 215.205 314.93 215.497V212.335ZM315.488 220.232C315.84 220.177 316.136 219.991 316.377 219.673C316.622 219.352 316.745 218.931 316.745 218.41C316.745 217.991 316.654 217.657 316.472 217.407C316.295 217.158 315.967 216.94 315.488 216.753V220.232ZM318.913 212.913V211.815H323.851V212.704C323.115 213.66 322.468 214.906 321.909 216.442C321.35 217.974 321.029 219.493 320.944 221H319.979C319.992 220.221 320.115 219.314 320.348 218.277C320.585 217.24 320.908 216.252 321.319 215.312C321.729 214.373 322.171 213.573 322.645 212.913H318.913ZM324.978 218.562L325.962 218.461C326.038 219.053 326.21 219.496 326.476 219.788C326.747 220.075 327.06 220.219 327.416 220.219C327.86 220.219 328.243 220.016 328.565 219.61C328.886 219.199 329.047 218.641 329.047 217.934C329.047 217.27 328.89 216.756 328.577 216.392C328.268 216.023 327.879 215.839 327.409 215.839C327.126 215.839 326.859 215.92 326.61 216.081C326.364 216.237 326.169 216.457 326.026 216.741L325.143 216.601L325.886 211.821H329.675V212.913H326.635L326.222 215.414C326.675 215.025 327.155 214.83 327.663 214.83C328.302 214.83 328.857 215.103 329.326 215.649C329.8 216.191 330.037 216.923 330.037 217.845C330.037 218.755 329.8 219.536 329.326 220.188C328.857 220.835 328.224 221.159 327.428 221.159C326.768 221.159 326.21 220.93 325.753 220.473C325.3 220.012 325.042 219.375 324.978 218.562ZM331.107 216.411C331.107 214.849 331.316 213.666 331.735 212.862C332.159 212.058 332.781 211.656 333.602 211.656C334.329 211.656 334.903 211.982 335.322 212.634C335.83 213.421 336.083 214.68 336.083 216.411C336.083 217.964 335.874 219.144 335.455 219.953C335.036 220.757 334.414 221.159 333.589 221.159C332.861 221.159 332.264 220.803 331.799 220.092C331.338 219.381 331.107 218.154 331.107 216.411ZM332.065 216.411C332.065 217.921 332.209 218.935 332.497 219.451C332.789 219.963 333.161 220.219 333.614 220.219C334.042 220.219 334.399 219.959 334.687 219.438C334.975 218.918 335.119 217.909 335.119 216.411C335.119 214.896 334.973 213.882 334.681 213.37C334.393 212.858 334.018 212.602 333.557 212.602C333.134 212.602 332.778 212.862 332.491 213.383C332.207 213.903 332.065 214.913 332.065 216.411ZM337.794 221V219.699H338.861V221H337.794ZM340.406 216.411C340.406 214.849 340.616 213.666 341.035 212.862C341.458 212.058 342.08 211.656 342.901 211.656C343.629 211.656 344.202 211.982 344.621 212.634C345.129 213.421 345.383 214.68 345.383 216.411C345.383 217.964 345.173 219.144 344.754 219.953C344.336 220.757 343.713 221.159 342.888 221.159C342.16 221.159 341.564 220.803 341.098 220.092C340.637 219.381 340.406 218.154 340.406 216.411ZM341.365 216.411C341.365 217.921 341.509 218.935 341.796 219.451C342.088 219.963 342.461 220.219 342.914 220.219C343.341 220.219 343.699 219.959 343.986 219.438C344.274 218.918 344.418 217.909 344.418 216.411C344.418 214.896 344.272 213.882 343.98 213.37C343.692 212.858 343.318 212.602 342.857 212.602C342.433 212.602 342.078 212.862 341.79 213.383C341.507 213.903 341.365 214.913 341.365 216.411ZM346.535 216.411C346.535 214.849 346.745 213.666 347.163 212.862C347.587 212.058 348.209 211.656 349.03 211.656C349.758 211.656 350.331 211.982 350.75 212.634C351.258 213.421 351.512 214.68 351.512 216.411C351.512 217.964 351.302 219.144 350.883 219.953C350.464 220.757 349.842 221.159 349.017 221.159C348.289 221.159 347.692 220.803 347.227 220.092C346.766 219.381 346.535 218.154 346.535 216.411ZM347.494 216.411C347.494 217.921 347.637 218.935 347.925 219.451C348.217 219.963 348.59 220.219 349.042 220.219C349.47 220.219 349.827 219.959 350.115 219.438C350.403 218.918 350.547 217.909 350.547 216.411C350.547 214.896 350.401 213.882 350.109 213.37C349.821 212.858 349.447 212.602 348.985 212.602C348.562 212.602 348.207 212.862 347.919 213.383C347.635 213.903 347.494 214.913 347.494 216.411ZM359.681 221V220.149C359.512 220.475 359.294 220.725 359.027 220.898C358.761 221.068 358.473 221.152 358.164 221.152C357.512 221.152 356.947 220.846 356.469 220.232C355.995 219.614 355.758 218.747 355.758 217.629C355.758 216.863 355.864 216.214 356.076 215.681C356.287 215.147 356.569 214.752 356.92 214.494C357.275 214.236 357.669 214.106 358.101 214.106C358.41 214.106 358.695 214.189 358.958 214.354C359.224 214.515 359.444 214.741 359.618 215.033V211.694H360.557V221H359.681ZM356.717 217.636C356.717 218.507 356.867 219.155 357.167 219.578C357.472 220.001 357.826 220.213 358.228 220.213C358.625 220.213 358.97 220.01 359.262 219.604C359.554 219.197 359.7 218.584 359.7 217.763C359.7 216.819 359.554 216.131 359.262 215.7C358.97 215.264 358.602 215.046 358.158 215.046C357.764 215.046 357.426 215.255 357.142 215.674C356.859 216.089 356.717 216.743 356.717 217.636ZM365.848 221V220.01C365.632 220.391 365.378 220.676 365.086 220.867C364.794 221.057 364.464 221.152 364.096 221.152C363.66 221.152 363.288 221.036 362.979 220.803C362.67 220.566 362.463 220.268 362.357 219.908C362.255 219.549 362.204 219.058 362.204 218.436V214.259H363.137V217.998C363.137 218.692 363.171 219.157 363.239 219.394C363.311 219.627 363.44 219.815 363.626 219.959C363.817 220.099 364.033 220.168 364.274 220.168C364.722 220.168 365.09 219.984 365.378 219.616C365.624 219.299 365.746 218.717 365.746 217.871V214.259H366.686V221H365.848ZM372.135 218.829L373.1 218.975C372.939 219.694 372.647 220.238 372.224 220.606C371.805 220.97 371.285 221.152 370.663 221.152C369.88 221.152 369.245 220.856 368.758 220.264C368.276 219.667 368.035 218.808 368.035 217.687C368.035 216.523 368.278 215.636 368.765 215.027C369.256 214.413 369.876 214.106 370.625 214.106C371.34 214.106 371.936 214.407 372.415 215.008C372.893 215.609 373.132 216.478 373.132 217.617L373.126 217.921H369C369.038 218.679 369.213 219.25 369.526 219.635C369.84 220.02 370.22 220.213 370.669 220.213C371.372 220.213 371.86 219.752 372.135 218.829ZM369.057 216.982H372.142C372.099 216.398 371.975 215.962 371.767 215.674C371.467 215.255 371.084 215.046 370.618 215.046C370.199 215.046 369.842 215.222 369.546 215.573C369.249 215.92 369.086 216.389 369.057 216.982ZM376.369 221L379.302 211.694H380.387L383.51 221H382.355L381.467 218.182H378.28L377.442 221H376.369ZM378.572 217.179H381.155L380.362 214.602C380.117 213.81 379.937 213.167 379.822 212.672C379.725 213.269 379.588 213.861 379.41 214.449L378.572 217.179ZM388.001 221V220.01C387.786 220.391 387.532 220.676 387.24 220.867C386.948 221.057 386.618 221.152 386.25 221.152C385.814 221.152 385.441 221.036 385.132 220.803C384.823 220.566 384.616 220.268 384.51 219.908C384.409 219.549 384.358 219.058 384.358 218.436V214.259H385.291V217.998C385.291 218.692 385.325 219.157 385.393 219.394C385.465 219.627 385.594 219.815 385.78 219.959C385.97 220.099 386.186 220.168 386.427 220.168C386.876 220.168 387.244 219.984 387.532 219.616C387.777 219.299 387.9 218.717 387.9 217.871V214.259H388.839V221H388.001ZM390.328 221.559L391.242 221.724C391.284 222.083 391.411 222.35 391.623 222.523C391.834 222.701 392.129 222.79 392.505 222.79C392.916 222.79 393.242 222.691 393.483 222.492C393.728 222.297 393.895 222.005 393.984 221.616C394.039 221.379 394.067 220.879 394.067 220.118C393.864 220.41 393.635 220.63 393.381 220.778C393.127 220.926 392.846 221 392.537 221C391.877 221 391.329 220.721 390.893 220.162C390.394 219.519 390.144 218.658 390.144 217.579C390.144 216.855 390.254 216.222 390.474 215.681C390.694 215.139 390.982 214.741 391.337 214.487C391.697 214.233 392.099 214.106 392.543 214.106C392.869 214.106 393.165 214.187 393.432 214.348C393.703 214.508 393.942 214.75 394.149 215.071V214.259H395.012V220.086C395.012 221.123 394.928 221.861 394.759 222.301C394.589 222.746 394.312 223.095 393.927 223.349C393.542 223.607 393.079 223.736 392.537 223.736C391.822 223.736 391.272 223.543 390.887 223.158C390.501 222.773 390.315 222.24 390.328 221.559ZM391.109 217.509C391.109 218.393 391.255 219.039 391.547 219.445C391.839 219.851 392.196 220.054 392.619 220.054C393.043 220.054 393.402 219.855 393.699 219.458C393.995 219.06 394.143 218.427 394.143 217.56C394.143 216.713 393.991 216.085 393.686 215.674C393.381 215.26 393.011 215.052 392.575 215.052C392.186 215.052 391.843 215.26 391.547 215.674C391.255 216.085 391.109 216.696 391.109 217.509ZM403.074 221H402.135V213.719C401.919 213.973 401.629 214.233 401.265 214.5C400.901 214.762 400.567 214.961 400.262 215.097V213.992C400.778 213.696 401.233 213.334 401.627 212.907C402.025 212.479 402.304 212.062 402.465 211.656H403.074V221ZM406.213 221V219.699H407.279V221C407.279 221.504 407.205 221.897 407.057 222.181C406.909 222.468 406.693 222.688 406.41 222.841L406.15 222.352C406.34 222.25 406.484 222.098 406.581 221.895C406.679 221.696 406.731 221.398 406.74 221H406.213ZM416.953 219.902V221H411.907C411.894 220.556 412.028 220.058 412.307 219.508C412.59 218.958 413.107 218.309 413.856 217.56C414.732 216.688 415.305 216.015 415.576 215.541C415.847 215.063 415.982 214.618 415.982 214.208C415.982 213.734 415.843 213.349 415.563 213.053C415.288 212.752 414.948 212.602 414.541 212.602C414.105 212.602 413.748 212.763 413.469 213.084C413.189 213.406 413.05 213.867 413.05 214.468L412.085 214.348C412.152 213.455 412.404 212.784 412.84 212.335C413.28 211.883 413.858 211.656 414.573 211.656C415.352 211.656 415.94 211.919 416.338 212.443C416.74 212.968 416.941 213.565 416.941 214.233C416.941 214.826 416.784 215.395 416.471 215.941C416.158 216.483 415.563 217.206 414.687 218.112C414.129 218.683 413.767 219.072 413.602 219.28C413.441 219.487 413.31 219.694 413.208 219.902H416.953ZM418.144 216.411C418.144 214.849 418.353 213.666 418.772 212.862C419.195 212.058 419.817 211.656 420.638 211.656C421.366 211.656 421.94 211.982 422.358 212.634C422.866 213.421 423.12 214.68 423.12 216.411C423.12 217.964 422.911 219.144 422.492 219.953C422.073 220.757 421.451 221.159 420.626 221.159C419.898 221.159 419.301 220.803 418.836 220.092C418.374 219.381 418.144 218.154 418.144 216.411ZM419.102 216.411C419.102 217.921 419.246 218.935 419.534 219.451C419.826 219.963 420.198 220.219 420.651 220.219C421.078 220.219 421.436 219.959 421.724 219.438C422.011 218.918 422.155 217.909 422.155 216.411C422.155 214.896 422.009 213.882 421.717 213.37C421.43 212.858 421.055 212.602 420.594 212.602C420.171 212.602 419.815 212.862 419.527 213.383C419.244 213.903 419.102 214.913 419.102 216.411ZM429.211 219.902V221H424.164C424.152 220.556 424.285 220.058 424.564 219.508C424.848 218.958 425.364 218.309 426.113 217.56C426.989 216.688 427.563 216.015 427.833 215.541C428.104 215.063 428.24 214.618 428.24 214.208C428.24 213.734 428.1 213.349 427.821 213.053C427.546 212.752 427.205 212.602 426.799 212.602C426.363 212.602 426.005 212.763 425.726 213.084C425.447 213.406 425.307 213.867 425.307 214.468L424.342 214.348C424.41 213.455 424.662 212.784 425.098 212.335C425.538 211.883 426.115 211.656 426.83 211.656C427.609 211.656 428.197 211.919 428.595 212.443C428.997 212.968 429.198 213.565 429.198 214.233C429.198 214.826 429.042 215.395 428.728 215.941C428.415 216.483 427.821 217.206 426.945 218.112C426.386 218.683 426.024 219.072 425.859 219.28C425.698 219.487 425.567 219.694 425.466 219.902H429.211ZM430.401 216.411C430.401 214.849 430.611 213.666 431.029 212.862C431.453 212.058 432.075 211.656 432.896 211.656C433.624 211.656 434.197 211.982 434.616 212.634C435.124 213.421 435.378 214.68 435.378 216.411C435.378 217.964 435.168 219.144 434.749 219.953C434.33 220.757 433.708 221.159 432.883 221.159C432.155 221.159 431.558 220.803 431.093 220.092C430.632 219.381 430.401 218.154 430.401 216.411ZM431.36 216.411C431.36 217.921 431.503 218.935 431.791 219.451C432.083 219.963 432.456 220.219 432.908 220.219C433.336 220.219 433.693 219.959 433.981 219.438C434.269 218.918 434.413 217.909 434.413 216.411C434.413 214.896 434.267 213.882 433.975 213.37C433.687 212.858 433.313 212.602 432.851 212.602C432.428 212.602 432.073 212.862 431.785 213.383C431.501 213.903 431.36 214.913 431.36 216.411Z" fill="#425466"/>
<g filter="url(#filter3_dd_1_393)">
<g clip-path="url(#clip5_1_393)">
<rect x="224" y="243" width="142" height="28" rx="4" fill="white"/>
<rect x="225" y="244" width="140" height="26" rx="3" stroke="#611F69" stroke-width="2"/>
<g clip-path="url(#clip6_1_393)">
<path d="M245.44 251C246.33 251 246.65 251.1 246.98 251.27C247.3 251.44 247.56 251.7 247.73 252.02C247.91 252.35 248 252.67 248 253.56V260.44C248 261.33 247.9 261.65 247.73 261.98C247.561 262.3 247.3 262.561 246.98 262.73C246.65 262.91 246.33 263 245.44 263H234.56C233.67 263 233.35 262.9 233.02 262.73C232.701 262.56 232.44 262.299 232.27 261.98C232.09 261.65 232 261.33 232 260.44V253.56C232 252.67 232.1 252.35 232.27 252.02C232.44 251.7 232.7 251.44 233.02 251.27C233.35 251.09 233.67 251 234.56 251H245.44ZM245.6 253H234.4C234.294 253 234.192 253.042 234.117 253.117C234.042 253.192 234 253.294 234 253.4V254.6C234 254.82 234.18 255 234.4 255H245.6C245.706 255 245.808 254.958 245.883 254.883C245.958 254.808 246 254.706 246 254.6V253.4C246 253.294 245.958 253.192 245.883 253.117C245.808 253.042 245.706 253 245.6 253Z" fill="#611F69"/>
</g>
<path d="M261.24 257.737L262.255 258.048C262.031 259.094 261.638 259.874 261.075 260.391C260.516 260.903 259.835 261.159 259.031 261.159C258.324 261.159 257.719 260.987 257.215 260.645C256.716 260.298 256.306 259.743 255.984 258.981C255.667 258.22 255.508 257.32 255.508 256.284C255.508 255.26 255.667 254.394 255.984 253.688C256.306 252.977 256.739 252.441 257.285 252.082C257.831 251.718 258.44 251.536 259.113 251.536C259.85 251.536 260.482 251.766 261.011 252.228C261.54 252.685 261.91 253.357 262.122 254.246L261.132 254.532C260.793 253.237 260.114 252.589 259.094 252.589C258.586 252.589 258.146 252.721 257.774 252.983C257.402 253.241 257.103 253.645 256.879 254.195C256.659 254.745 256.549 255.442 256.549 256.284C256.549 257.557 256.773 258.514 257.222 259.153C257.67 259.788 258.267 260.105 259.012 260.105C259.562 260.105 260.036 259.91 260.434 259.521C260.836 259.127 261.104 258.533 261.24 257.737ZM267.184 260.168C266.871 260.494 266.545 260.74 266.207 260.905C265.868 261.07 265.517 261.152 265.153 261.152C264.578 261.152 264.118 260.979 263.776 260.632C263.433 260.285 263.262 259.817 263.262 259.229C263.262 258.84 263.342 258.495 263.503 258.194C263.664 257.894 263.884 257.659 264.163 257.49C264.442 257.32 264.865 257.196 265.432 257.115C266.194 257.005 266.753 256.874 267.108 256.722L267.115 256.43C267.115 255.968 267.032 255.645 266.867 255.458C266.634 255.188 266.277 255.052 265.794 255.052C265.358 255.052 265.033 255.143 264.817 255.325C264.601 255.503 264.442 255.839 264.341 256.334L263.42 256.182C263.551 255.458 263.816 254.932 264.214 254.602C264.616 254.271 265.189 254.106 265.934 254.106C266.514 254.106 266.969 254.216 267.299 254.437C267.629 254.652 267.836 254.921 267.921 255.243C268.01 255.564 268.054 256.034 268.054 256.652V258.175C268.054 259.242 268.073 259.915 268.111 260.194C268.153 260.469 268.234 260.738 268.352 261H267.375C267.277 260.767 267.214 260.49 267.184 260.168ZM267.108 257.617C266.765 257.786 266.256 257.93 265.578 258.048C265.185 258.116 264.91 258.194 264.753 258.283C264.597 258.368 264.474 258.491 264.385 258.651C264.3 258.808 264.258 258.99 264.258 259.197C264.258 259.519 264.358 259.777 264.556 259.972C264.755 260.162 265.03 260.257 265.382 260.257C265.716 260.257 266.019 260.171 266.289 259.997C266.564 259.824 266.77 259.593 266.905 259.305C267.04 259.013 267.108 258.59 267.108 258.036V257.617ZM269.708 261V254.259H270.552V255.281C270.768 254.807 270.964 254.494 271.142 254.341C271.324 254.185 271.527 254.106 271.752 254.106C272.065 254.106 272.384 254.229 272.71 254.475L272.393 255.535C272.16 255.37 271.934 255.287 271.713 255.287C271.515 255.287 271.333 255.357 271.168 255.497C271.003 255.636 270.886 255.831 270.818 256.081C270.7 256.516 270.641 256.98 270.641 257.471V261H269.708ZM277.049 261V260.149C276.879 260.475 276.662 260.725 276.395 260.898C276.128 261.068 275.841 261.152 275.532 261.152C274.88 261.152 274.315 260.846 273.837 260.232C273.363 259.614 273.126 258.747 273.126 257.629C273.126 256.863 273.232 256.214 273.443 255.681C273.655 255.147 273.936 254.752 274.288 254.494C274.643 254.236 275.037 254.106 275.468 254.106C275.777 254.106 276.063 254.189 276.325 254.354C276.592 254.515 276.812 254.741 276.985 255.033V251.694H277.925V261H277.049ZM274.084 257.636C274.084 258.507 274.235 259.155 274.535 259.578C274.84 260.001 275.193 260.213 275.595 260.213C275.993 260.213 276.338 260.01 276.63 259.604C276.922 259.197 277.068 258.584 277.068 257.763C277.068 256.819 276.922 256.131 276.63 255.7C276.338 255.264 275.97 255.046 275.525 255.046C275.132 255.046 274.793 255.255 274.51 255.674C274.226 256.089 274.084 256.743 274.084 257.636Z" fill="#611F69"/>
</g>
</g>
<g filter="url(#filter4_dd_1_393)">
<g clip-path="url(#clip7_1_393)">
<rect x="382" y="243" width="142" height="28" rx="4" fill="white"/>
<g clip-path="url(#clip8_1_393)">
<path d="M398.84 250.19L405.14 253.69C405.275 253.766 405.38 253.884 405.441 254.026C405.501 254.168 405.513 254.326 405.474 254.476C405.435 254.625 405.348 254.758 405.226 254.853C405.104 254.947 404.954 254.999 404.8 255H392.2C392.046 254.999 391.896 254.947 391.774 254.853C391.652 254.758 391.565 254.625 391.526 254.476C391.487 254.326 391.499 254.168 391.559 254.026C391.62 253.884 391.725 253.766 391.86 253.69L398.16 250.19C398.264 250.132 398.381 250.102 398.5 250.102C398.619 250.102 398.736 250.132 398.84 250.19ZM392.58 262H404.42C404.47 262 404.52 262.02 404.56 262.06L406.16 263.66C406.187 263.688 406.206 263.723 406.213 263.762C406.221 263.8 406.217 263.84 406.202 263.876C406.187 263.912 406.162 263.943 406.13 263.965C406.097 263.987 406.059 263.999 406.02 264H390.98C390.941 263.999 390.903 263.987 390.87 263.965C390.838 263.943 390.813 263.912 390.798 263.876C390.783 263.84 390.779 263.8 390.786 263.762C390.794 263.723 390.813 263.688 390.84 263.66L392.44 262.06C392.477 262.022 392.527 262.001 392.58 262ZM393.5 256H395.5C395.78 256 396 256.22 396 256.5V261.5H393V256.5C393 256.22 393.22 256 393.5 256ZM397.5 256H399.5C399.78 256 400 256.22 400 256.5V261.5H397V256.5C397 256.22 397.22 256 397.5 256ZM401.5 256H403.5C403.78 256 404 256.22 404 256.5V261.5H401V256.5C401 256.22 401.22 256 401.5 256Z" fill="#CFD7DF"/>
</g>
<path d="M414.787 261V251.694H417.65C418.23 251.694 418.689 251.785 419.027 251.967C419.366 252.145 419.643 252.424 419.859 252.805C420.075 253.186 420.183 253.607 420.183 254.068C420.183 254.496 420.09 254.881 419.903 255.224C419.717 255.566 419.455 255.841 419.116 256.049C419.561 256.21 419.91 256.485 420.164 256.874C420.422 257.259 420.551 257.735 420.551 258.302C420.551 258.865 420.434 259.36 420.202 259.788C419.973 260.211 419.666 260.52 419.281 260.714C418.896 260.905 418.367 261 417.694 261H414.787ZM415.796 255.604H417.447C417.878 255.604 418.185 255.575 418.367 255.516C418.63 255.427 418.831 255.279 418.97 255.071C419.114 254.86 419.186 254.574 419.186 254.214C419.186 253.88 419.12 253.603 418.989 253.383C418.862 253.159 418.691 253.004 418.475 252.919C418.264 252.835 417.881 252.792 417.326 252.792H415.796V255.604ZM415.796 259.902H417.694C418.113 259.902 418.422 259.864 418.621 259.788C418.909 259.678 419.127 259.498 419.275 259.248C419.427 258.994 419.503 258.677 419.503 258.296C419.503 257.945 419.431 257.648 419.288 257.407C419.144 257.162 418.949 256.984 418.704 256.874C418.462 256.76 418.082 256.703 417.561 256.703H415.796V259.902ZM425.6 260.168C425.287 260.494 424.961 260.74 424.623 260.905C424.284 261.07 423.933 261.152 423.569 261.152C422.994 261.152 422.534 260.979 422.192 260.632C421.849 260.285 421.678 259.817 421.678 259.229C421.678 258.84 421.758 258.495 421.919 258.194C422.08 257.894 422.3 257.659 422.579 257.49C422.858 257.32 423.281 257.196 423.848 257.115C424.61 257.005 425.169 256.874 425.524 256.722L425.531 256.43C425.531 255.968 425.448 255.645 425.283 255.458C425.05 255.188 424.693 255.052 424.21 255.052C423.774 255.052 423.449 255.143 423.233 255.325C423.017 255.503 422.858 255.839 422.757 256.334L421.836 256.182C421.967 255.458 422.232 254.932 422.63 254.602C423.032 254.271 423.605 254.106 424.35 254.106C424.93 254.106 425.385 254.216 425.715 254.437C426.045 254.652 426.252 254.921 426.337 255.243C426.426 255.564 426.47 256.034 426.47 256.652V258.175C426.47 259.242 426.489 259.915 426.527 260.194C426.569 260.469 426.65 260.738 426.768 261H425.791C425.693 260.767 425.63 260.49 425.6 260.168ZM425.524 257.617C425.181 257.786 424.672 257.93 423.994 258.048C423.601 258.116 423.326 258.194 423.169 258.283C423.013 258.368 422.89 258.491 422.801 258.651C422.716 258.808 422.674 258.99 422.674 259.197C422.674 259.519 422.774 259.777 422.972 259.972C423.171 260.162 423.446 260.257 423.798 260.257C424.132 260.257 424.435 260.171 424.705 259.997C424.98 259.824 425.186 259.593 425.321 259.305C425.457 259.013 425.524 258.59 425.524 258.036V257.617ZM428.124 261V254.259H428.968V255.217C429.171 254.845 429.419 254.568 429.711 254.386C430.007 254.2 430.345 254.106 430.726 254.106C431.022 254.106 431.295 254.166 431.545 254.284C431.799 254.398 432.002 254.551 432.154 254.741C432.311 254.927 432.427 255.171 432.504 255.471C432.58 255.772 432.618 256.233 432.618 256.855V261H431.678V256.899C431.678 256.404 431.636 256.042 431.551 255.814C431.467 255.585 431.333 255.41 431.151 255.287C430.974 255.16 430.766 255.097 430.529 255.097C430.081 255.097 429.723 255.264 429.457 255.598C429.19 255.932 429.057 256.506 429.057 257.318V261H428.124ZM434.278 261V251.694H435.211V257.001L437.433 254.259H438.645L436.531 256.76L438.854 261H437.705L435.871 257.553L435.211 258.328V261H434.278Z" fill="#62788D"/>
</g>
</g>
<g filter="url(#filter5_dd_1_393)">
<g clip-path="url(#clip9_1_393)">
<rect x="224" y="287" width="300" height="28" rx="4" fill="white"/>
<g clip-path="url(#clip10_1_393)">
<path d="M245.44 295C246.33 295 246.65 295.1 246.98 295.27C247.3 295.44 247.56 295.7 247.73 296.02C247.91 296.35 248 296.67 248 297.56V304.44C248 305.33 247.9 305.65 247.73 305.98C247.561 306.3 247.3 306.561 246.98 306.73C246.65 306.91 246.33 307 245.44 307H234.56C233.67 307 233.35 306.9 233.02 306.73C232.701 306.56 232.44 306.299 232.27 305.98C232.09 305.65 232 305.33 232 304.44V297.56C232 296.67 232.1 296.35 232.27 296.02C232.44 295.7 232.7 295.44 233.02 295.27C233.35 295.09 233.67 295 234.56 295H245.44ZM245.6 297H234.4C234.294 297 234.192 297.042 234.117 297.117C234.042 297.192 234 297.294 234 297.4V298.6C234 298.82 234.18 299 234.4 299H245.6C245.706 299 245.808 298.958 245.883 298.883C245.958 298.808 246 298.706 246 298.6V297.4C246 297.294 245.958 297.192 245.883 297.117C245.808 297.042 245.706 297 245.6 297Z" fill="#CFD7DF"/>
</g>
<path d="M261.24 301.737L262.255 302.048C262.031 303.094 261.638 303.874 261.075 304.391C260.516 304.903 259.835 305.159 259.031 305.159C258.324 305.159 257.719 304.987 257.215 304.645C256.716 304.298 256.306 303.743 255.984 302.981C255.667 302.22 255.508 301.32 255.508 300.284C255.508 299.26 255.667 298.394 255.984 297.688C256.306 296.977 256.739 296.441 257.285 296.082C257.831 295.718 258.44 295.536 259.113 295.536C259.85 295.536 260.482 295.766 261.011 296.228C261.54 296.685 261.91 297.357 262.122 298.246L261.132 298.532C260.793 297.237 260.114 296.589 259.094 296.589C258.586 296.589 258.146 296.721 257.774 296.983C257.402 297.241 257.103 297.645 256.879 298.195C256.659 298.745 256.549 299.442 256.549 300.284C256.549 301.557 256.773 302.514 257.222 303.153C257.67 303.788 258.267 304.105 259.012 304.105C259.562 304.105 260.036 303.91 260.434 303.521C260.836 303.127 261.104 302.533 261.24 301.737ZM267.184 304.168C266.871 304.494 266.545 304.74 266.207 304.905C265.868 305.07 265.517 305.152 265.153 305.152C264.578 305.152 264.118 304.979 263.776 304.632C263.433 304.285 263.262 303.817 263.262 303.229C263.262 302.84 263.342 302.495 263.503 302.194C263.664 301.894 263.884 301.659 264.163 301.49C264.442 301.32 264.865 301.196 265.432 301.115C266.194 301.005 266.753 300.874 267.108 300.722L267.115 300.43C267.115 299.968 267.032 299.645 266.867 299.458C266.634 299.188 266.277 299.052 265.794 299.052C265.358 299.052 265.033 299.143 264.817 299.325C264.601 299.503 264.442 299.839 264.341 300.334L263.42 300.182C263.551 299.458 263.816 298.932 264.214 298.602C264.616 298.271 265.189 298.106 265.934 298.106C266.514 298.106 266.969 298.216 267.299 298.437C267.629 298.652 267.836 298.921 267.921 299.243C268.01 299.564 268.054 300.034 268.054 300.652V302.175C268.054 303.242 268.073 303.915 268.111 304.194C268.153 304.469 268.234 304.738 268.352 305H267.375C267.277 304.767 267.214 304.49 267.184 304.168ZM267.108 301.617C266.765 301.786 266.256 301.93 265.578 302.048C265.185 302.116 264.91 302.194 264.753 302.283C264.597 302.368 264.474 302.491 264.385 302.651C264.3 302.808 264.258 302.99 264.258 303.197C264.258 303.519 264.358 303.777 264.556 303.972C264.755 304.162 265.03 304.257 265.382 304.257C265.716 304.257 266.019 304.171 266.289 303.997C266.564 303.824 266.77 303.593 266.905 303.305C267.04 303.013 267.108 302.59 267.108 302.036V301.617ZM269.708 305V298.259H270.552V299.281C270.768 298.807 270.964 298.494 271.142 298.341C271.324 298.185 271.527 298.106 271.752 298.106C272.065 298.106 272.384 298.229 272.71 298.475L272.393 299.535C272.16 299.37 271.934 299.287 271.713 299.287C271.515 299.287 271.333 299.357 271.168 299.497C271.003 299.636 270.886 299.831 270.818 300.081C270.7 300.516 270.641 300.98 270.641 301.471V305H269.708ZM277.049 305V304.149C276.879 304.475 276.662 304.725 276.395 304.898C276.128 305.068 275.841 305.152 275.532 305.152C274.88 305.152 274.315 304.846 273.837 304.232C273.363 303.614 273.126 302.747 273.126 301.629C273.126 300.863 273.232 300.214 273.443 299.681C273.655 299.147 273.936 298.752 274.288 298.494C274.643 298.236 275.037 298.106 275.468 298.106C275.777 298.106 276.063 298.189 276.325 298.354C276.592 298.515 276.812 298.741 276.985 299.033V295.694H277.925V305H277.049ZM274.084 301.636C274.084 302.507 274.235 303.155 274.535 303.578C274.84 304.001 275.193 304.213 275.595 304.213C275.993 304.213 276.338 304.01 276.63 303.604C276.922 303.197 277.068 302.584 277.068 301.763C277.068 300.819 276.922 300.131 276.63 299.7C276.338 299.264 275.97 299.046 275.525 299.046C275.132 299.046 274.793 299.255 274.51 299.674C274.226 300.089 274.084 300.743 274.084 301.636ZM282.762 305V298.259H283.606V299.217C283.809 298.845 284.057 298.568 284.349 298.386C284.645 298.2 284.983 298.106 285.364 298.106C285.66 298.106 285.933 298.166 286.183 298.284C286.437 298.398 286.64 298.551 286.792 298.741C286.949 298.927 287.065 299.171 287.142 299.471C287.218 299.772 287.256 300.233 287.256 300.855V305H286.316V300.899C286.316 300.404 286.274 300.042 286.189 299.814C286.105 299.585 285.972 299.41 285.79 299.287C285.612 299.16 285.404 299.097 285.167 299.097C284.719 299.097 284.361 299.264 284.095 299.598C283.828 299.932 283.695 300.506 283.695 301.318V305H282.762ZM292.515 305V304.01C292.299 304.391 292.045 304.676 291.753 304.867C291.461 305.057 291.131 305.152 290.763 305.152C290.327 305.152 289.955 305.036 289.646 304.803C289.337 304.566 289.13 304.268 289.024 303.908C288.922 303.549 288.871 303.058 288.871 302.436V298.259H289.804V301.998C289.804 302.692 289.838 303.157 289.906 303.394C289.978 303.627 290.107 303.815 290.293 303.959C290.484 304.099 290.7 304.168 290.941 304.168C291.389 304.168 291.757 303.984 292.045 303.616C292.291 303.299 292.413 302.717 292.413 301.871V298.259H293.353V305H292.515ZM295.032 305V298.259H295.87V299.205C296.056 298.853 296.295 298.583 296.587 298.392C296.879 298.202 297.199 298.106 297.546 298.106C297.935 298.106 298.263 298.208 298.529 298.411C298.8 298.61 298.993 298.902 299.107 299.287C299.327 298.894 299.579 298.599 299.862 298.405C300.15 298.206 300.468 298.106 300.815 298.106C301.344 298.106 301.76 298.286 302.065 298.646C302.37 299.006 302.522 299.581 302.522 300.373V305H301.589V300.753C301.589 300.271 301.553 299.93 301.481 299.731C301.413 299.528 301.301 299.372 301.145 299.262C300.988 299.152 300.812 299.097 300.618 299.097C300.216 299.097 299.888 299.257 299.634 299.579C299.38 299.896 299.253 300.398 299.253 301.083V305H298.314V300.62C298.314 300.062 298.227 299.668 298.053 299.439C297.884 299.211 297.649 299.097 297.349 299.097C296.921 299.097 296.583 299.27 296.333 299.617C296.088 299.96 295.965 300.588 295.965 301.502V305H295.032ZM304.969 305H304.1V295.694H305.033V299.014C305.232 298.709 305.456 298.483 305.705 298.335C305.959 298.183 306.241 298.106 306.55 298.106C306.981 298.106 307.373 298.236 307.724 298.494C308.079 298.752 308.363 299.143 308.575 299.668C308.786 300.193 308.892 300.83 308.892 301.579C308.892 302.721 308.653 303.604 308.175 304.226C307.697 304.843 307.138 305.152 306.499 305.152C306.177 305.152 305.887 305.07 305.629 304.905C305.375 304.736 305.155 304.486 304.969 304.156V305ZM304.956 301.579C304.956 302.277 305.02 302.799 305.147 303.146C305.274 303.493 305.454 303.758 305.686 303.94C305.919 304.122 306.177 304.213 306.461 304.213C306.846 304.213 307.187 303.997 307.483 303.565C307.783 303.13 307.933 302.48 307.933 301.617C307.933 300.732 307.79 300.083 307.502 299.668C307.214 299.253 306.861 299.046 306.442 299.046C306.057 299.046 305.712 299.264 305.407 299.7C305.107 300.131 304.956 300.758 304.956 301.579ZM314.018 302.829L314.983 302.975C314.822 303.694 314.53 304.238 314.107 304.606C313.688 304.97 313.167 305.152 312.545 305.152C311.762 305.152 311.127 304.856 310.641 304.264C310.158 303.667 309.917 302.808 309.917 301.687C309.917 300.523 310.161 299.636 310.647 299.027C311.138 298.413 311.758 298.106 312.507 298.106C313.222 298.106 313.819 298.407 314.297 299.008C314.775 299.609 315.014 300.478 315.014 301.617L315.008 301.921H310.882C310.92 302.679 311.096 303.25 311.409 303.635C311.722 304.02 312.103 304.213 312.551 304.213C313.254 304.213 313.743 303.752 314.018 302.829ZM310.939 300.982H314.024C313.982 300.398 313.857 299.962 313.65 299.674C313.349 299.255 312.966 299.046 312.501 299.046C312.082 299.046 311.724 299.222 311.428 299.573C311.132 299.92 310.969 300.389 310.939 300.982ZM316.363 305V298.259H317.208V299.281C317.423 298.807 317.62 298.494 317.798 298.341C317.98 298.185 318.183 298.106 318.407 298.106C318.72 298.106 319.04 298.229 319.366 298.475L319.048 299.535C318.816 299.37 318.589 299.287 318.369 299.287C318.17 299.287 317.988 299.357 317.823 299.497C317.658 299.636 317.542 299.831 317.474 300.081C317.356 300.516 317.296 300.98 317.296 301.471V305H316.363Z" fill="#62788D"/>
<path d="M415.137 305V295.694H416.654L418.463 302.283L418.825 303.661C418.914 303.318 419.049 302.821 419.231 302.169L421.06 295.694H422.418V305H421.447V297.211L419.225 305H418.317L416.108 297.078V305H415.137ZM424.224 305V295.694H425.741L427.55 302.283L427.912 303.661C428.001 303.318 428.136 302.821 428.318 302.169L430.146 295.694H431.505V305H430.533V297.211L428.312 305H427.404L425.195 297.078V305H424.224ZM435.688 305.159L437.897 295.536H438.652L436.437 305.159H435.688ZM444.81 305V301.058L441.871 295.694H443.102L444.6 298.5C444.896 299.054 445.157 299.579 445.381 300.074C445.605 299.588 445.882 299.04 446.212 298.43L447.691 295.694H448.866L445.819 301.058V305H444.81ZM452.119 305V301.058L449.18 295.694H450.411L451.909 298.5C452.206 299.054 452.466 299.579 452.69 300.074C452.915 299.588 453.192 299.04 453.522 298.43L455.001 295.694H456.175L453.128 301.058V305H452.119Z" fill="#62788D"/>
<path d="M487.287 301.737L488.302 302.048C488.078 303.094 487.684 303.874 487.122 304.391C486.563 304.903 485.882 305.159 485.078 305.159C484.371 305.159 483.766 304.987 483.262 304.645C482.763 304.298 482.352 303.743 482.031 302.981C481.713 302.22 481.555 301.32 481.555 300.284C481.555 299.26 481.713 298.394 482.031 297.688C482.352 296.977 482.786 296.441 483.332 296.082C483.878 295.718 484.487 295.536 485.16 295.536C485.896 295.536 486.529 295.766 487.058 296.228C487.587 296.685 487.957 297.357 488.169 298.246L487.179 298.532C486.84 297.237 486.161 296.589 485.141 296.589C484.633 296.589 484.193 296.721 483.821 296.983C483.448 297.241 483.15 297.645 482.926 298.195C482.706 298.745 482.596 299.442 482.596 300.284C482.596 301.557 482.82 302.514 483.269 303.153C483.717 303.788 484.314 304.105 485.059 304.105C485.609 304.105 486.083 303.91 486.48 303.521C486.882 303.127 487.151 302.533 487.287 301.737ZM491.949 305L488.991 295.694H490.083L492.07 302.455C492.222 302.979 492.355 303.487 492.47 303.978C492.588 303.466 492.723 302.958 492.876 302.455L494.939 295.694H495.967L492.984 305H491.949ZM502.489 301.737L503.505 302.048C503.281 303.094 502.887 303.874 502.324 304.391C501.766 304.903 501.084 305.159 500.28 305.159C499.574 305.159 498.969 304.987 498.465 304.645C497.966 304.298 497.555 303.743 497.233 302.981C496.916 302.22 496.757 301.32 496.757 300.284C496.757 299.26 496.916 298.394 497.233 297.688C497.555 296.977 497.989 296.441 498.535 296.082C499.081 295.718 499.69 295.536 500.363 295.536C501.099 295.536 501.732 295.766 502.261 296.228C502.79 296.685 503.16 297.357 503.372 298.246L502.381 298.532C502.043 297.237 501.364 296.589 500.344 296.589C499.836 296.589 499.396 296.721 499.024 296.983C498.651 297.241 498.353 297.645 498.129 298.195C497.908 298.745 497.798 299.442 497.798 300.284C497.798 301.557 498.023 302.514 498.471 303.153C498.92 303.788 499.517 304.105 500.261 304.105C500.811 304.105 501.285 303.91 501.683 303.521C502.085 303.127 502.354 302.533 502.489 301.737Z" fill="#62788D"/>
</g>
</g>
<g filter="url(#filter6_dd_1_393)">
<g clip-path="url(#clip11_1_393)">
<rect x="224" y="331" width="300" height="28" rx="4" fill="white" fill-opacity="0.01" shape-rendering="crispEdges"/>
<rect x="224" y="331" width="300" height="28" rx="4" fill="#611F69"/>
<path d="M341.091 349V339.694H343.966C344.643 339.694 345.143 339.754 345.464 339.872C345.904 340.033 346.256 340.331 346.518 340.767C346.78 341.203 346.912 341.738 346.912 342.373C346.912 343.211 346.698 343.894 346.271 344.423C345.843 344.952 345.105 345.217 344.055 345.217H342.1V349H341.091ZM342.1 344.119H344.074C344.696 344.119 345.151 343.979 345.439 343.7C345.727 343.416 345.871 342.991 345.871 342.424C345.871 342.056 345.799 341.74 345.655 341.478C345.515 341.216 345.344 341.036 345.141 340.938C344.942 340.841 344.58 340.792 344.055 340.792H342.1V344.119ZM351.866 348.168C351.553 348.494 351.227 348.74 350.888 348.905C350.55 349.07 350.199 349.152 349.835 349.152C349.259 349.152 348.8 348.979 348.457 348.632C348.115 348.285 347.943 347.817 347.943 347.229C347.943 346.84 348.024 346.495 348.184 346.194C348.345 345.894 348.565 345.659 348.845 345.49C349.124 345.32 349.547 345.196 350.114 345.115C350.876 345.005 351.434 344.874 351.79 344.722L351.796 344.43C351.796 343.968 351.714 343.645 351.549 343.458C351.316 343.188 350.958 343.052 350.476 343.052C350.04 343.052 349.714 343.143 349.498 343.325C349.283 343.503 349.124 343.839 349.022 344.334L348.102 344.182C348.233 343.458 348.498 342.932 348.895 342.602C349.297 342.271 349.871 342.106 350.616 342.106C351.195 342.106 351.65 342.216 351.98 342.437C352.31 342.652 352.518 342.921 352.602 343.243C352.691 343.564 352.736 344.034 352.736 344.652V346.175C352.736 347.242 352.755 347.915 352.793 348.194C352.835 348.469 352.915 348.738 353.034 349H352.056C351.959 348.767 351.896 348.49 351.866 348.168ZM351.79 345.617C351.447 345.786 350.937 345.93 350.26 346.048C349.867 346.116 349.591 346.194 349.435 346.283C349.278 346.368 349.156 346.491 349.067 346.651C348.982 346.808 348.94 346.99 348.94 347.197C348.94 347.519 349.039 347.777 349.238 347.972C349.437 348.162 349.712 348.257 350.063 348.257C350.398 348.257 350.7 348.171 350.971 347.997C351.246 347.824 351.451 347.593 351.587 347.305C351.722 347.013 351.79 346.59 351.79 346.036V345.617ZM354.364 351.596L354.262 350.523C354.47 350.591 354.647 350.625 354.796 350.625C354.994 350.625 355.157 350.585 355.284 350.504C355.415 350.424 355.523 350.299 355.608 350.13C355.638 350.071 355.76 349.698 355.976 349.013L353.875 342.259H354.884L356.04 346.163C356.184 346.649 356.317 347.17 356.44 347.724C356.545 347.199 356.672 346.687 356.82 346.188L358.001 342.259H358.941L356.839 349.114C356.564 350.003 356.346 350.595 356.186 350.892C356.029 351.192 355.849 351.408 355.646 351.539C355.447 351.67 355.221 351.736 354.967 351.736C354.789 351.736 354.588 351.689 354.364 351.596ZM363.092 341.008V339.694H364.025V341.008H363.092ZM363.092 349V342.259H364.025V349H363.092ZM365.666 349V342.259H366.51V343.217C366.713 342.845 366.961 342.568 367.253 342.386C367.549 342.2 367.888 342.106 368.269 342.106C368.565 342.106 368.838 342.166 369.087 342.284C369.341 342.398 369.544 342.551 369.697 342.741C369.853 342.927 369.97 343.171 370.046 343.471C370.122 343.772 370.16 344.233 370.16 344.855V349H369.221V344.899C369.221 344.404 369.178 344.042 369.094 343.814C369.009 343.585 368.876 343.41 368.694 343.287C368.516 343.16 368.309 343.097 368.072 343.097C367.623 343.097 367.266 343.264 366.999 343.598C366.732 343.932 366.599 344.506 366.599 345.318V349H365.666ZM373.344 349L371.242 342.259H372.233L373.42 346.296C373.555 346.753 373.674 347.206 373.775 347.654C373.856 347.299 373.97 346.871 374.118 346.372L375.349 342.259H376.314L374.22 349H373.344ZM376.978 345.629C376.978 344.466 377.221 343.588 377.708 342.995C378.199 342.403 378.818 342.106 379.567 342.106C380.304 342.106 380.92 342.403 381.415 342.995C381.91 343.588 382.157 344.442 382.157 345.56C382.157 346.77 381.914 347.671 381.427 348.264C380.941 348.856 380.321 349.152 379.567 349.152C378.827 349.152 378.209 348.856 377.714 348.264C377.223 347.667 376.978 346.789 376.978 345.629ZM377.936 345.629C377.936 346.501 378.095 347.151 378.412 347.578C378.73 348.001 379.123 348.213 379.593 348.213C380.033 348.213 380.41 347.999 380.723 347.572C381.04 347.14 381.199 346.493 381.199 345.629C381.199 344.762 381.04 344.117 380.723 343.693C380.405 343.266 380.012 343.052 379.542 343.052C379.098 343.052 378.719 343.266 378.406 343.693C378.093 344.121 377.936 344.766 377.936 345.629ZM383.455 341.008V339.694H384.389V341.008H383.455ZM383.455 349V342.259H384.389V349H383.455ZM389.654 346.531L390.574 346.677C390.469 347.481 390.202 348.094 389.775 348.518C389.351 348.941 388.842 349.152 388.245 349.152C387.521 349.152 386.925 348.856 386.455 348.264C385.989 347.667 385.757 346.787 385.757 345.623C385.757 344.451 385.991 343.573 386.461 342.989C386.935 342.401 387.542 342.106 388.283 342.106C388.854 342.106 389.335 342.284 389.724 342.64C390.117 342.995 390.369 343.528 390.479 344.239L389.571 344.411C389.483 343.954 389.328 343.613 389.108 343.389C388.888 343.16 388.624 343.046 388.315 343.046C387.853 343.046 387.47 343.251 387.166 343.662C386.865 344.068 386.715 344.715 386.715 345.604C386.715 346.522 386.859 347.187 387.147 347.597C387.439 348.008 387.811 348.213 388.264 348.213C388.619 348.213 388.922 348.077 389.172 347.807C389.425 347.532 389.586 347.106 389.654 346.531ZM395.345 346.829L396.31 346.975C396.149 347.694 395.857 348.238 395.434 348.606C395.015 348.97 394.494 349.152 393.872 349.152C393.089 349.152 392.454 348.856 391.968 348.264C391.485 347.667 391.244 346.808 391.244 345.687C391.244 344.523 391.487 343.636 391.974 343.027C392.465 342.413 393.085 342.106 393.834 342.106C394.549 342.106 395.146 342.407 395.624 343.008C396.102 343.609 396.341 344.478 396.341 345.617L396.335 345.921H392.209C392.247 346.679 392.423 347.25 392.736 347.635C393.049 348.02 393.43 348.213 393.878 348.213C394.581 348.213 395.07 347.752 395.345 346.829ZM392.266 344.982H395.351C395.309 344.398 395.184 343.962 394.977 343.674C394.676 343.255 394.293 343.046 393.828 343.046C393.409 343.046 393.051 343.222 392.755 343.573C392.459 343.92 392.296 344.389 392.266 344.982Z" fill="white"/>
</g>
</g>
</g>
</g>
</g>
</g>
</g>
<defs>
<filter id="filter0_dd_1_393" x="0" y="0" width="748" height="582" filterUnits="userSpaceOnUse" color-interpolation-filters="sRGB">
<feFlood flood-opacity="0" result="BackgroundImageFix"/>
<feColorMatrix in="SourceAlpha" type="matrix" values="0 0 0 0 0 0 0 0 0 0 0 0 0 0 0 0 0 0 127 0" result="hardAlpha"/>
<feMorphology radius="30" operator="erode" in="SourceAlpha" result="effect1_dropShadow_1_393"/>
<feOffset dy="30"/>
<feGaussianBlur stdDeviation="30"/>
<feComposite in2="hardAlpha" operator="out"/>
<feColorMatrix type="matrix" values="0 0 0 0 0 0 0 0 0 0 0 0 0 0 0 0 0 0 0.3 0"/>
<feBlend mode="normal" in2="BackgroundImageFix" result="effect1_dropShadow_1_393"/>
<feColorMatrix in="SourceAlpha" type="matrix" values="0 0 0 0 0 0 0 0 0 0 0 0 0 0 0 0 0 0 127 0" result="hardAlpha"/>
<feMorphology radius="20" operator="erode" in="SourceAlpha" result="effect2_dropShadow_1_393"/>
<feOffset dy="50"/>
<feGaussianBlur stdDeviation="50"/>
<feComposite in2="hardAlpha" operator="out"/>
<feColorMatrix type="matrix" values="0 0 0 0 0.196078 0 0 0 0 0.196078 0 0 0 0 0.364706 0 0 0 0.25 0"/>
<feBlend mode="normal" in2="effect1_dropShadow_1_393" result="effect2_dropShadow_1_393"/>
<feBlend mode="normal" in="SourceGraphic" in2="effect2_dropShadow_1_393" result="shape"/>
</filter>
<filter id="filter1_dd_1_393" x="162" y="74" width="424" height="360" filterUnits="userSpaceOnUse" color-interpolation-filters="sRGB">
<feFlood flood-opacity="0" result="BackgroundImageFix"/>
<feColorMatrix in="SourceAlpha" type="matrix" values="0 0 0 0 0 0 0 0 0 0 0 0 0 0 0 0 0 0 127 0" result="hardAlpha"/>
<feMorphology radius="8" operator="erode" in="SourceAlpha" result="effect1_dropShadow_1_393"/>
<feOffset dy="8"/>
<feGaussianBlur stdDeviation="8"/>
<feComposite in2="hardAlpha" operator="out"/>
<feColorMatrix type="matrix" values="0 0 0 0 0 0 0 0 0 0 0 0 0 0 0 0 0 0 0.3 0"/>
<feBlend mode="normal" in2="BackgroundImageFix" result="effect1_dropShadow_1_393"/>
<feColorMatrix in="SourceAlpha" type="matrix" values="0 0 0 0 0 0 0 0 0 0 0 0 0 0 0 0 0 0 127 0" result="hardAlpha"/>
<feMorphology radius="5" operator="erode" in="SourceAlpha" result="effect2_dropShadow_1_393"/>
<feOffset dy="13"/>
<feGaussianBlur stdDeviation="13.5"/>
<feComposite in2="hardAlpha" operator="out"/>
<feColorMatrix type="matrix" values="0 0 0 0 0.196078 0 0 0 0 0.196078 0 0 0 0 0.364706 0 0 0 0.25 0"/>
<feBlend mode="normal" in2="effect1_dropShadow_1_393" result="effect2_dropShadow_1_393"/>
<feBlend mode="normal" in="SourceGraphic" in2="effect2_dropShadow_1_393" result="shape"/>
</filter>
<filter id="filter2_dd_1_393" x="340" y="59" width="68" height="68" filterUnits="userSpaceOnUse" color-interpolation-filters="sRGB">
<feFlood flood-opacity="0" result="BackgroundImageFix"/>
<feColorMatrix in="SourceAlpha" type="matrix" values="0 0 0 0 0 0 0 0 0 0 0 0 0 0 0 0 0 0 127 0" result="hardAlpha"/>
<feMorphology radius="1" operator="erode" in="SourceAlpha" result="effect1_dropShadow_1_393"/>
<feOffset/>
<feGaussianBlur stdDeviation="1.5"/>
<feComposite in2="hardAlpha" operator="out"/>
<feColorMatrix type="matrix" values="0 0 0 0 0 0 0 0 0 0 0 0 0 0 0 0 0 0 0.3 0"/>
<feBlend mode="normal" in2="BackgroundImageFix" result="effect1_dropShadow_1_393"/>
<feColorMatrix in="SourceAlpha" type="matrix" values="0 0 0 0 0 0 0 0 0 0 0 0 0 0 0 0 0 0 127 0" result="hardAlpha"/>
<feMorphology radius="1" operator="erode" in="SourceAlpha" result="effect2_dropShadow_1_393"/>
<feOffset/>
<feGaussianBlur stdDeviation="2.5"/>
<feComposite in2="hardAlpha" operator="out"/>
<feColorMatrix type="matrix" values="0 0 0 0 0.196078 0 0 0 0 0.196078 0 0 0 0 0.364706 0 0 0 0.25 0"/>
<feBlend mode="normal" in2="effect1_dropShadow_1_393" result="effect2_dropShadow_1_393"/>
<feBlend mode="normal" in="SourceGraphic" in2="effect2_dropShadow_1_393" result="shape"/>
</filter>
<filter id="filter3_dd_1_393" x="220" y="241" width="150" height="36" filterUnits="userSpaceOnUse" color-interpolation-filters="sRGB">
<feFlood flood-opacity="0" result="BackgroundImageFix"/>
<feColorMatrix in="SourceAlpha" type="matrix" values="0 0 0 0 0 0 0 0 0 0 0 0 0 0 0 0 0 0 127 0" result="hardAlpha"/>
<feMorphology radius="1" operator="erode" in="SourceAlpha" result="effect1_dropShadow_1_393"/>
<feOffset dy="1"/>
<feGaussianBlur stdDeviation="1.5"/>
<feComposite in2="hardAlpha" operator="out"/>
<feColorMatrix type="matrix" values="0 0 0 0 0 0 0 0 0 0 0 0 0 0 0 0 0 0 0.3 0"/>
<feBlend mode="normal" in2="BackgroundImageFix" result="effect1_dropShadow_1_393"/>
<feColorMatrix in="SourceAlpha" type="matrix" values="0 0 0 0 0 0 0 0 0 0 0 0 0 0 0 0 0 0 127 0" result="hardAlpha"/>
<feMorphology radius="1" operator="erode" in="SourceAlpha" result="effect2_dropShadow_1_393"/>
<feOffset dy="2"/>
<feGaussianBlur stdDeviation="2.5"/>
<feComposite in2="hardAlpha" operator="out"/>
<feColorMatrix type="matrix" values="0 0 0 0 0.196078 0 0 0 0 0.196078 0 0 0 0 0.364706 0 0 0 0.25 0"/>
<feBlend mode="normal" in2="effect1_dropShadow_1_393" result="effect2_dropShadow_1_393"/>
<feBlend mode="normal" in="SourceGraphic" in2="effect2_dropShadow_1_393" result="shape"/>
</filter>
<filter id="filter4_dd_1_393" x="378" y="241" width="150" height="36" filterUnits="userSpaceOnUse" color-interpolation-filters="sRGB">
<feFlood flood-opacity="0" result="BackgroundImageFix"/>
<feColorMatrix in="SourceAlpha" type="matrix" values="0 0 0 0 0 0 0 0 0 0 0 0 0 0 0 0 0 0 127 0" result="hardAlpha"/>
<feMorphology radius="1" operator="erode" in="SourceAlpha" result="effect1_dropShadow_1_393"/>
<feOffset dy="1"/>
<feGaussianBlur stdDeviation="1.5"/>
<feComposite in2="hardAlpha" operator="out"/>
<feColorMatrix type="matrix" values="0 0 0 0 0 0 0 0 0 0 0 0 0 0 0 0 0 0 0.3 0"/>
<feBlend mode="normal" in2="BackgroundImageFix" result="effect1_dropShadow_1_393"/>
<feColorMatrix in="SourceAlpha" type="matrix" values="0 0 0 0 0 0 0 0 0 0 0 0 0 0 0 0 0 0 127 0" result="hardAlpha"/>
<feMorphology radius="1" operator="erode" in="SourceAlpha" result="effect2_dropShadow_1_393"/>
<feOffset dy="2"/>
<feGaussianBlur stdDeviation="2.5"/>
<feComposite in2="hardAlpha" operator="out"/>
<feColorMatrix type="matrix" values="0 0 0 0 0.196078 0 0 0 0 0.196078 0 0 0 0 0.364706 0 0 0 0.25 0"/>
<feBlend mode="normal" in2="effect1_dropShadow_1_393" result="effect2_dropShadow_1_393"/>
<feBlend mode="normal" in="SourceGraphic" in2="effect2_dropShadow_1_393" result="shape"/>
</filter>
<filter id="filter5_dd_1_393" x="220" y="285" width="308" height="36" filterUnits="userSpaceOnUse" color-interpolation-filters="sRGB">
<feFlood flood-opacity="0" result="BackgroundImageFix"/>
<feColorMatrix in="SourceAlpha" type="matrix" values="0 0 0 0 0 0 0 0 0 0 0 0 0 0 0 0 0 0 127 0" result="hardAlpha"/>
<feMorphology radius="1" operator="erode" in="SourceAlpha" result="effect1_dropShadow_1_393"/>
<feOffset dy="1"/>
<feGaussianBlur stdDeviation="1.5"/>
<feComposite in2="hardAlpha" operator="out"/>
<feColorMatrix type="matrix" values="0 0 0 0 0 0 0 0 0 0 0 0 0 0 0 0 0 0 0.3 0"/>
<feBlend mode="normal" in2="BackgroundImageFix" result="effect1_dropShadow_1_393"/>
<feColorMatrix in="SourceAlpha" type="matrix" values="0 0 0 0 0 0 0 0 0 0 0 0 0 0 0 0 0 0 127 0" result="hardAlpha"/>
<feMorphology radius="1" operator="erode" in="SourceAlpha" result="effect2_dropShadow_1_393"/>
<feOffset dy="2"/>
<feGaussianBlur stdDeviation="2.5"/>
<feComposite in2="hardAlpha" operator="out"/>
<feColorMatrix type="matrix" values="0 0 0 0 0.196078 0 0 0 0 0.196078 0 0 0 0 0.364706 0 0 0 0.25 0"/>
<feBlend mode="normal" in2="effect1_dropShadow_1_393" result="effect2_dropShadow_1_393"/>
<feBlend mode="normal" in="SourceGraphic" in2="effect2_dropShadow_1_393" result="shape"/>
</filter>
<filter id="filter6_dd_1_393" x="220" y="329" width="308" height="36" filterUnits="userSpaceOnUse" color-interpolation-filters="sRGB">
<feFlood flood-opacity="0" result="BackgroundImageFix"/>
<feColorMatrix in="SourceAlpha" type="matrix" values="0 0 0 0 0 0 0 0 0 0 0 0 0 0 0 0 0 0 127 0" result="hardAlpha"/>
<feMorphology radius="1" operator="erode" in="SourceAlpha" result="effect1_dropShadow_1_393"/>
<feOffset dy="1"/>
<feGaussianBlur stdDeviation="1.5"/>
<feComposite in2="hardAlpha" operator="out"/>
<feColorMatrix type="matrix" values="0 0 0 0 0 0 0 0 0 0 0 0 0 0 0 0 0 0 0.3 0"/>
<feBlend mode="normal" in2="BackgroundImageFix" result="effect1_dropShadow_1_393"/>
<feColorMatrix in="SourceAlpha" type="matrix" values="0 0 0 0 0 0 0 0 0 0 0 0 0 0 0 0 0 0 127 0" result="hardAlpha"/>
<feMorphology radius="1" operator="erode" in="SourceAlpha" result="effect2_dropShadow_1_393"/>
<feOffset dy="2"/>
<feGaussianBlur stdDeviation="2.5"/>
<feComposite in2="hardAlpha" operator="out"/>
<feColorMatrix type="matrix" values="0 0 0 0 0.196078 0 0 0 0 0.196078 0 0 0 0 0.364706 0 0 0 0.25 0"/>
<feBlend mode="normal" in2="effect1_dropShadow_1_393" result="effect2_dropShadow_1_393"/>
<feBlend mode="normal" in="SourceGraphic" in2="effect2_dropShadow_1_393" result="shape"/>
</filter>
<clipPath id="clip0_1_393">
<rect x="80" y="30" width="588" height="422" rx="8" fill="white"/>
</clipPath>
<clipPath id="clip1_1_393">
<rect x="80" y="30" width="588" height="422" rx="8" fill="white"/>
</clipPath>
<clipPath id="clip2_1_393">
<rect width="588" height="407.718" fill="white" transform="matrix(0.978148 -0.207912 0 1 80 -94.9833)"/>
</clipPath>
<clipPath id="clip3_1_393">
<rect x="184" y="83" width="380" height="316" rx="6" fill="white"/>
</clipPath>
<clipPath id="clip4_1_393">
<rect x="344" y="63" width="60" height="60" rx="30" fill="white"/>
</clipPath>
<clipPath id="clip5_1_393">
<rect x="224" y="243" width="142" height="28" rx="4" fill="white"/>
</clipPath>
<clipPath id="clip6_1_393">
<rect width="16" height="12" fill="white" transform="translate(232 251)"/>
</clipPath>
<clipPath id="clip7_1_393">
<rect x="382" y="243" width="142" height="28" rx="4" fill="white"/>
</clipPath>
<clipPath id="clip8_1_393">
<rect width="17" height="14" fill="white" transform="translate(390 250)"/>
</clipPath>
<clipPath id="clip9_1_393">
<rect x="224" y="287" width="300" height="28" rx="4" fill="white"/>
</clipPath>
<clipPath id="clip10_1_393">
<rect width="16" height="12" fill="white" transform="translate(232 295)"/>
</clipPath>
<clipPath id="clip11_1_393">
<rect x="224" y="331" width="300" height="28" rx="4" fill="white"/>
</clipPath>
</defs>
</svg>
