<svg width="540" height="395" viewBox="0 0 540 395" fill="none" xmlns="http://www.w3.org/2000/svg">
<g filter="url(#filter0_dd_1_366)">
<g clip-path="url(#clip0_1_366)">
<rect x="80" y="30" width="380" height="235" rx="16" fill="white" fill-opacity="0.01" shape-rendering="crispEdges"/>
<g clip-path="url(#clip1_1_366)">
<rect width="380" height="235" transform="translate(80 30)" fill="#09CBCB"/>
<g clip-path="url(#clip2_1_366)">
<path d="M117.32 70.3C118.65 70.3 119.82 70.05 120.82 69.58C121.736 69.1437 122.547 68.5163 123.2 67.74C123.25 67.68 123.29 67.62 123.27 67.54C123.25 67.47 123.22 67.47 123.15 67.43L121.41 66.2L121.28 66.1C121.245 66.0757 121.203 66.0619 121.16 66.06C121.07 66.06 121.02 66.14 120.96 66.2C120.574 66.6618 120.098 67.0396 119.56 67.31C118.873 67.6291 118.126 67.801 117.368 67.8148C116.611 67.8286 115.859 67.6839 115.16 67.39C114.528 67.117 113.962 66.7112 113.5 66.2C113.025 65.6748 112.661 65.0592 112.43 64.39C111.915 62.9062 111.918 61.2915 112.44 59.81C112.801 58.78 113.48 57.8912 114.378 57.2712C115.277 56.6513 116.349 56.3323 117.44 56.36C118.08 56.36 118.72 56.48 119.38 56.74L119.71 56.87C120.11 57.05 120.36 57.22 120.69 57.58L120.85 57.77C120.91 57.82 121.05 57.91 121.29 57.72L121.89 57.27C122.19 57.04 122.47 56.82 122.77 56.54C122.92 56.41 123 56.29 122.83 56.04C122.65 55.8 122.42 55.53 121.98 55.24C121.085 54.6395 120.073 54.2372 119.01 54.06C117.367 53.7721 115.678 53.9204 114.11 54.49C113.113 54.839 112.2 55.3943 111.431 56.1197C110.663 56.8451 110.056 57.7243 109.65 58.7C109.21 59.7 108.99 60.82 108.99 62.06C108.99 63.28 109.19 64.39 109.61 65.4C110.003 66.3728 110.591 67.255 111.337 67.9927C112.084 68.7303 112.973 69.3079 113.95 69.69C114.97 70.09 116.09 70.29 117.31 70.29L117.32 70.3ZM129.29 70.2C130.795 70.202 132.246 69.6421 133.36 68.63C133.906 68.1072 134.337 67.4759 134.624 66.7766C134.912 66.0774 135.05 65.3258 135.03 64.57C135.062 63.4527 134.74 62.3539 134.112 61.4295C133.484 60.505 132.58 59.8019 131.53 59.42C130.083 58.8723 128.487 58.8723 127.04 59.42C126.366 59.6725 125.75 60.0574 125.228 60.5521C124.706 61.0468 124.288 61.6411 124 62.3C123.7 62.98 123.55 63.74 123.55 64.57C123.545 65.3246 123.691 66.0724 123.98 66.7697C124.268 67.4669 124.693 68.0994 125.23 68.63C125.73 69.13 126.35 69.51 127.05 69.79C127.75 70.06 128.5 70.2 129.3 70.2H129.29ZM129.29 68C128.846 68.0102 128.405 67.9159 128.004 67.7249C127.603 67.5338 127.252 67.2513 126.98 66.9C126.724 66.5713 126.531 66.1985 126.41 65.8C126.168 65.0013 126.168 64.1487 126.41 63.35C126.54 62.95 126.73 62.58 126.98 62.26C127.252 61.9126 127.602 61.6339 128.001 61.4463C128.401 61.2587 128.839 61.1675 129.28 61.18C129.723 61.1659 130.163 61.2563 130.564 61.444C130.965 61.6316 131.317 61.9112 131.59 62.26C131.84 62.58 132.03 62.95 132.16 63.36C132.407 64.1546 132.407 65.0054 132.16 65.8C132.042 66.1978 131.852 66.5706 131.6 66.9C131.328 67.2513 130.977 67.5338 130.576 67.7249C130.175 67.9159 129.734 68.0102 129.29 68ZM139.71 69.4V64.09C139.71 63.74 139.76 63.39 139.86 63.04C139.96 62.7 140.09 62.39 140.28 62.13C140.472 61.8446 140.733 61.6124 141.039 61.455C141.345 61.2977 141.686 61.2203 142.03 61.23C142.7 61.23 143.19 61.44 143.51 61.88C143.83 62.31 143.98 62.86 143.98 63.52V69.4C143.98 69.67 144.21 69.9 144.48 69.9H146.12C146.253 69.9 146.38 69.8473 146.474 69.7536C146.567 69.6598 146.62 69.5326 146.62 69.4V64.13C146.62 63.79 146.67 63.45 146.75 63.11C146.85 62.76 146.98 62.45 147.17 62.17C147.37 61.9 147.61 61.67 147.9 61.49C148.2 61.32 148.54 61.23 148.95 61.23C149.38 61.23 149.72 61.32 149.98 61.49C150.23 61.67 150.44 61.89 150.58 62.16C150.73 62.43 150.82 62.74 150.87 63.08C150.91 63.41 150.93 63.74 150.93 64.04V69.4C150.93 69.67 151.16 69.9 151.43 69.9H153.07C153.203 69.9 153.33 69.8473 153.424 69.7536C153.517 69.6598 153.57 69.5326 153.57 69.4V63.3C153.57 62.75 153.5 62.23 153.35 61.71C153.212 61.2154 152.978 60.7531 152.66 60.35C152.336 59.9451 151.926 59.6171 151.46 59.39C150.902 59.1341 150.293 59.0109 149.68 59.03C148.956 59.0127 148.24 59.1924 147.61 59.55C147.03 59.89 146.56 60.38 146.21 61.03C145.91 60.43 145.49 59.94 144.95 59.58C144.338 59.1937 143.623 59.0019 142.9 59.03C142.48 59.03 142.1 59.08 141.74 59.19C141.095 59.3836 140.524 59.7669 140.1 60.29C139.9 60.52 139.74 60.77 139.63 61.03H139.58V59.83C139.58 59.6974 139.527 59.5702 139.434 59.4764C139.34 59.3827 139.213 59.33 139.08 59.33H137.58C137.447 59.33 137.32 59.3827 137.226 59.4764C137.133 59.5702 137.08 59.6974 137.08 59.83V69.4C137.08 69.67 137.3 69.9 137.58 69.9H139.21C139.343 69.9 139.47 69.8473 139.564 69.7536C139.657 69.6598 139.71 69.5326 139.71 69.4ZM158.79 69.4V64.09C158.79 63.74 158.84 63.39 158.93 63.04C159.03 62.7 159.17 62.39 159.35 62.13C159.53 61.87 159.77 61.65 160.07 61.48C160.36 61.31 160.7 61.23 161.1 61.23C161.77 61.23 162.27 61.44 162.59 61.88C162.9 62.31 163.06 62.86 163.06 63.52V69.4C163.06 69.67 163.28 69.9 163.56 69.9H165.2C165.333 69.9 165.46 69.8473 165.554 69.7536C165.647 69.6598 165.7 69.5326 165.7 69.4V64.13C165.7 63.79 165.74 63.45 165.83 63.11C165.92 62.76 166.06 62.45 166.25 62.17C166.437 61.8695 166.7 61.6236 167.013 61.4568C167.325 61.2901 167.676 61.2084 168.03 61.22C168.46 61.22 168.8 61.32 169.05 61.49C169.31 61.67 169.51 61.89 169.65 62.16C169.8 62.43 169.9 62.74 169.95 63.08C169.99 63.41 170.01 63.74 170.01 64.04V69.4C170.01 69.67 170.23 69.9 170.51 69.9H172.15C172.283 69.9 172.41 69.8473 172.504 69.7536C172.597 69.6598 172.65 69.5326 172.65 69.4V63.3C172.65 62.75 172.58 62.23 172.43 61.71C172.289 61.2146 172.051 60.7522 171.73 60.35C171.406 59.9451 170.996 59.6171 170.53 59.39C169.975 59.1356 169.37 59.0124 168.76 59.03C168.036 59.0127 167.32 59.1924 166.69 59.55C166.1 59.89 165.63 60.38 165.28 61.03C164.98 60.43 164.57 59.94 164.03 59.58C163.418 59.1937 162.703 59.0019 161.98 59.03C161.55 59.03 161.17 59.08 160.81 59.19C160.169 59.3854 159.601 59.7685 159.18 60.29C158.98 60.52 158.82 60.77 158.7 61.03H158.66V59.83C158.66 59.6974 158.607 59.5702 158.514 59.4764C158.42 59.3827 158.293 59.33 158.16 59.33H156.65C156.517 59.33 156.39 59.3827 156.296 59.4764C156.203 59.5702 156.15 59.6974 156.15 59.83V69.4C156.15 69.67 156.37 69.9 156.65 69.9H158.29C158.423 69.9 158.55 69.8473 158.644 69.7536C158.737 69.6598 158.79 69.5326 158.79 69.4ZM179.03 70.2C179.83 70.2 180.51 70 181.09 69.6C181.67 69.2 182.08 68.73 182.31 68.2H182.35V69.4C182.35 69.67 182.58 69.9 182.85 69.9H184.36C184.493 69.9 184.62 69.8473 184.714 69.7536C184.807 69.6598 184.86 69.5326 184.86 69.4V59.84C184.86 59.7074 184.807 59.5802 184.714 59.4864C184.62 59.3927 184.493 59.34 184.36 59.34H182.72C182.587 59.34 182.46 59.3927 182.366 59.4864C182.273 59.5802 182.22 59.7074 182.22 59.84V65.14C182.22 65.5 182.17 65.84 182.07 66.19C181.97 66.53 181.81 66.84 181.62 67.1C181.402 67.3847 181.12 67.6144 180.797 67.7706C180.474 67.9269 180.119 68.0055 179.76 68C179.33 68 178.99 67.92 178.73 67.74C178.479 67.5679 178.273 67.3381 178.13 67.07C177.978 66.7871 177.88 66.4786 177.84 66.16C177.799 65.8383 177.779 65.5143 177.78 65.19V59.84C177.78 59.7074 177.727 59.5802 177.634 59.4864C177.54 59.3927 177.413 59.34 177.28 59.34H175.64C175.507 59.34 175.38 59.3927 175.286 59.4864C175.193 59.5802 175.14 59.7074 175.14 59.84V65.94C175.14 66.48 175.21 67.01 175.36 67.52C175.5 68.03 175.74 68.49 176.06 68.88C176.36 69.28 176.76 69.6 177.26 69.84C177.76 70.08 178.34 70.2 179.03 70.2ZM191.29 70.12C191.888 70.1132 192.481 70.0155 193.05 69.83L192.95 67.76C192.592 67.8984 192.213 67.9729 191.83 67.98C191.25 67.98 190.87 67.83 190.7 67.52C190.519 67.1574 190.433 66.7549 190.45 66.35V61.45H192.59C192.723 61.45 192.85 61.3973 192.944 61.3036C193.037 61.2098 193.09 61.0826 193.09 60.95V59.84C193.09 59.7074 193.037 59.5802 192.944 59.4864C192.85 59.3927 192.723 59.34 192.59 59.34H190.45V56.78C190.45 56.6474 190.397 56.5202 190.304 56.4264C190.21 56.3327 190.083 56.28 189.95 56.28H188.35C188.217 56.28 188.09 56.3327 187.996 56.4264C187.903 56.5202 187.85 56.6474 187.85 56.78V59.34H186.51C186.377 59.34 186.25 59.3927 186.156 59.4864C186.063 59.5802 186.01 59.7074 186.01 59.84V60.94C186.01 61.22 186.23 61.44 186.51 61.44H187.86V66.38C187.86 66.88 187.9 67.37 188 67.82C188.1 68.26 188.27 68.66 188.53 69.01C188.78 69.35 189.13 69.62 189.57 69.81C190.01 70.01 190.58 70.11 191.29 70.11V70.12ZM195.84 57.33C196.33 57.33 196.74 57.18 197.06 56.88C197.39 56.58 197.56 56.2 197.56 55.75C197.56 55.3 197.39 54.92 197.06 54.62C196.73 54.32 196.33 54.17 195.84 54.17C195.626 54.1633 195.414 54.199 195.214 54.2749C195.014 54.3509 194.831 54.4656 194.676 54.6124C194.521 54.7593 194.396 54.9354 194.309 55.1306C194.223 55.3259 194.175 55.5364 194.17 55.75C194.175 55.9636 194.223 56.1741 194.309 56.3694C194.396 56.5646 194.521 56.7407 194.676 56.8876C194.831 57.0344 195.014 57.1491 195.214 57.2251C195.414 57.301 195.626 57.3367 195.84 57.33ZM197.18 69.4V59.84C197.18 59.7074 197.127 59.5802 197.034 59.4864C196.94 59.3927 196.813 59.34 196.68 59.34H195.04C194.907 59.34 194.78 59.3927 194.686 59.4864C194.593 59.5802 194.54 59.7074 194.54 59.84V69.4C194.54 69.67 194.77 69.9 195.04 69.9H196.68C196.813 69.9 196.94 69.8473 197.034 69.7536C197.127 69.6598 197.18 69.5326 197.18 69.4ZM202.95 69.4V61.45H204.89C205.023 61.45 205.15 61.3973 205.244 61.3036C205.337 61.2098 205.39 61.0826 205.39 60.95V59.84C205.39 59.7074 205.337 59.5802 205.244 59.4864C205.15 59.3927 205.023 59.34 204.89 59.34H202.95V57.62C202.95 57.36 202.97 57.08 203.02 56.81C203.06 56.53 203.14 56.27 203.27 56.04C203.39 55.8 203.57 55.61 203.81 55.46C204.04 55.32 204.35 55.24 204.73 55.24C205.073 55.238 205.414 55.292 205.74 55.4L205.92 53.15C205.72 53.1 205.52 53.05 205.32 53.03C205.12 53.01 204.87 53 204.58 53C203.76 53 203.08 53.13 202.53 53.39C201.99 53.64 201.55 53.99 201.23 54.43C200.89 54.87 200.66 55.38 200.52 55.96C200.38 56.54 200.31 57.14 200.31 57.77V59.34H198.81C198.677 59.34 198.55 59.3927 198.456 59.4864C198.363 59.5802 198.31 59.7074 198.31 59.84V60.94C198.31 61.22 198.53 61.44 198.81 61.44H200.31V69.4C200.31 69.67 200.53 69.9 200.81 69.9H202.45C202.583 69.9 202.71 69.8473 202.804 69.7536C202.897 69.6598 202.95 69.5326 202.95 69.4ZM208.63 57.33C209.11 57.33 209.52 57.18 209.85 56.88C210.18 56.58 210.35 56.2 210.35 55.75C210.35 55.3 210.18 54.92 209.85 54.62C209.52 54.32 209.11 54.17 208.63 54.17C208.416 54.162 208.202 54.1967 208.001 54.272C207.8 54.3473 207.616 54.4618 207.46 54.6088C207.303 54.7558 207.178 54.9323 207.09 55.1283C207.003 55.3242 206.955 55.5355 206.95 55.75C206.95 56.18 207.11 56.55 207.43 56.86C207.74 57.18 208.14 57.33 208.63 57.33ZM209.97 69.4V59.84C209.97 59.7074 209.917 59.5802 209.824 59.4864C209.73 59.3927 209.603 59.34 209.47 59.34H207.83C207.697 59.34 207.57 59.3927 207.476 59.4864C207.383 59.5802 207.33 59.7074 207.33 59.84V69.4C207.33 69.67 207.55 69.9 207.83 69.9H209.47C209.603 69.9 209.73 69.8473 209.824 69.7536C209.917 69.6598 209.97 69.5326 209.97 69.4Z" fill="white"/>
</g>
<g clip-path="url(#clip3_1_366)">
<path d="M228.338 157.901C234.024 157.901 238.634 153.292 238.634 147.606C238.634 141.92 234.024 137.311 228.338 137.311C222.652 137.311 218.043 141.92 218.043 147.606C218.043 153.292 222.652 157.901 228.338 157.901Z" fill="white" fill-opacity="0.5"/>
<path d="M248.919 135.453C254.605 135.453 259.214 130.844 259.214 125.158C259.214 119.472 254.605 114.863 248.919 114.863C243.233 114.863 238.623 119.472 238.623 125.158C238.623 130.844 243.233 135.453 248.919 135.453Z" fill="white" fill-opacity="0.5"/>
<path d="M248.919 180.349C254.605 180.349 259.214 175.74 259.214 170.054C259.214 164.368 254.605 159.759 248.919 159.759C243.233 159.759 238.623 164.368 238.623 170.054C238.623 175.74 243.233 180.349 248.919 180.349Z" fill="white" fill-opacity="0.5"/>
<path d="M269.499 114.873C275.185 114.873 279.795 110.264 279.795 104.578C279.795 98.8916 275.185 94.2822 269.499 94.2822C263.813 94.2822 259.204 98.8916 259.204 104.578C259.204 110.264 263.813 114.873 269.499 114.873Z" fill="white" fill-opacity="0.5"/>
<path d="M269.499 200.93C275.185 200.93 279.795 196.32 279.795 190.634C279.795 184.948 275.185 180.339 269.499 180.339C263.813 180.339 259.204 184.948 259.204 190.634C259.204 196.32 263.813 200.93 269.499 200.93Z" fill="white" fill-opacity="0.5"/>
<path fill-rule="evenodd" clip-rule="evenodd" d="M290.08 114.863C292.753 114.947 295.289 116.067 297.151 117.988C299.012 119.909 300.053 122.478 300.053 125.153C300.053 127.828 299.012 130.397 297.151 132.318C295.289 134.239 292.753 135.36 290.08 135.443C288.334 135.443 287.052 136.715 284.912 138.169C279.764 141.701 280.309 147.333 279.875 147.616C280.309 147.899 279.774 153.541 284.922 157.053C287.052 158.527 288.334 159.789 290.07 159.789C292.106 159.787 294.098 160.389 295.792 161.519C297.487 162.649 298.808 164.256 299.589 166.137C300.369 168.018 300.575 170.089 300.179 172.086C299.783 174.084 298.803 175.92 297.363 177.36C295.924 178.801 294.09 179.783 292.092 180.181C290.095 180.579 288.024 180.376 286.142 179.597C284.261 178.818 282.652 177.498 281.52 175.805C280.389 174.112 279.785 172.121 279.785 170.084C279.785 168.166 279.724 166.955 278.2 163.988C276.837 161.323 272.245 157.921 269.499 157.921C269.469 157.921 269.459 157.911 269.469 157.901C268.117 157.899 266.779 157.631 265.53 157.112C264.282 156.593 263.148 155.833 262.194 154.875C260.266 152.942 259.185 150.321 259.189 147.591C259.191 146.239 259.459 144.9 259.978 143.652C260.498 142.404 261.258 141.27 262.215 140.315C264.149 138.387 266.769 137.307 269.499 137.311H269.701C272.477 137.149 276.868 133.838 278.2 131.244C279.724 128.277 279.785 127.056 279.785 125.158C279.785 122.428 280.869 119.809 282.8 117.878C284.731 115.947 287.349 114.863 290.08 114.863Z" fill="white"/>
<path d="M310.66 157.901C316.346 157.901 320.956 153.292 320.956 147.606C320.956 141.92 316.346 137.311 310.66 137.311C304.975 137.311 300.365 141.92 300.365 147.606C300.365 153.292 304.975 157.901 310.66 157.901Z" fill="white" fill-opacity="0.5"/>
</g>
<g filter="url(#filter1_d_1_366)">
<rect x="121" y="110" width="53" height="47" rx="7" fill="black" fill-opacity="0.3" shape-rendering="crispEdges"/>
</g>
<g clip-path="url(#clip4_1_366)">
<path d="M167 111H128C124.686 111 122 113.686 122 117V150C122 153.314 124.686 156 128 156H167C170.314 156 173 153.314 173 150V117C173 113.686 170.314 111 167 111Z" fill="#828396"/>
<path d="M173 66H71V164H173V66Z" fill="url(#paint0_linear_1_366)"/>
</g>
<g clip-path="url(#clip5_1_366)">
<path d="M400 221L394.57 247H388L393.43 221H400ZM428 238H434L431.8 228L428 238ZM435.81 247L435.01 243.12H426.42L425.02 247H418L428.04 222.9C428.269 222.334 428.664 221.849 429.172 221.51C429.68 221.171 430.279 220.994 430.89 221H436.59L442 247H435.81ZM418.72 238.06C418.7 243.5 413.95 247 406.7 247C403.6 246.97 400.63 246.34 399.01 245.61L400.26 239.89C401.87 240.62 403.89 241.59 407.36 241.54C409.35 241.51 411.48 240.74 411.5 238.98C411.51 237.84 410.6 237.02 407.91 235.74C405.3 234.49 401.82 232.39 401.86 228.64C401.9 223.53 406.7 220 413.53 220C416.2 220 418.33 220.57 420 221.15L418.79 226.7C416.659 225.718 414.306 225.318 411.97 225.54C409.97 225.79 409.07 226.79 409.04 227.72C408.97 230.8 418.75 231.18 418.72 238.07V238.06ZM390 221L378.96 247H371.76L366.35 226.25C366 224.97 365.72 224.51 364.72 223.97C362.58 222.956 360.323 222.21 358 221.75L358.16 221H369.75C371.23 221 372.55 221.97 372.89 223.65L375.76 238.7L382.85 221H390Z" fill="white"/>
</g>
<path d="M109.916 237V226.263H111.666L113.753 233.865L114.171 235.455C114.273 235.059 114.43 234.485 114.64 233.733L116.749 226.263H118.316V237H117.196V228.013L114.632 237H113.585L111.036 227.859V237H109.916ZM120.245 227.779V226.263H121.322V227.779H120.245ZM120.245 237V229.222H121.322V237H120.245ZM127.366 234.151L128.428 234.319C128.306 235.247 127.999 235.955 127.505 236.443C127.017 236.932 126.429 237.176 125.74 237.176C124.905 237.176 124.217 236.834 123.675 236.15C123.138 235.462 122.869 234.446 122.869 233.104C122.869 231.751 123.14 230.738 123.682 230.064C124.229 229.385 124.93 229.046 125.784 229.046C126.443 229.046 126.998 229.251 127.447 229.661C127.901 230.071 128.192 230.687 128.318 231.507L127.271 231.705C127.169 231.177 126.99 230.784 126.736 230.525C126.483 230.262 126.177 230.13 125.821 230.13C125.289 230.13 124.847 230.367 124.495 230.84C124.149 231.309 123.975 232.056 123.975 233.082C123.975 234.141 124.141 234.908 124.473 235.381C124.81 235.855 125.24 236.092 125.762 236.092C126.172 236.092 126.522 235.936 126.81 235.623C127.103 235.306 127.288 234.815 127.366 234.151ZM133.697 236.041C133.335 236.417 132.959 236.7 132.569 236.89C132.178 237.081 131.773 237.176 131.353 237.176C130.689 237.176 130.159 236.976 129.764 236.575C129.368 236.175 129.17 235.635 129.17 234.957C129.17 234.507 129.263 234.109 129.449 233.763C129.634 233.416 129.888 233.145 130.21 232.95C130.533 232.754 131.021 232.61 131.675 232.518C132.554 232.391 133.199 232.239 133.609 232.063L133.616 231.727C133.616 231.194 133.521 230.821 133.33 230.606C133.062 230.293 132.649 230.137 132.093 230.137C131.59 230.137 131.214 230.242 130.965 230.452C130.716 230.657 130.533 231.045 130.415 231.617L129.353 231.441C129.505 230.606 129.81 229.998 130.269 229.617C130.733 229.236 131.394 229.046 132.254 229.046C132.923 229.046 133.448 229.173 133.829 229.427C134.209 229.676 134.449 229.986 134.546 230.357C134.649 230.728 134.7 231.27 134.7 231.983V233.741C134.7 234.971 134.722 235.748 134.766 236.07C134.815 236.387 134.908 236.697 135.044 237H133.916C133.804 236.731 133.731 236.412 133.697 236.041ZM133.609 233.096C133.213 233.292 132.625 233.458 131.844 233.594C131.39 233.672 131.072 233.763 130.892 233.865C130.711 233.963 130.569 234.104 130.467 234.29C130.369 234.471 130.32 234.681 130.32 234.92C130.32 235.291 130.435 235.589 130.664 235.813C130.894 236.033 131.211 236.143 131.617 236.143C132.002 236.143 132.351 236.043 132.664 235.843C132.981 235.643 133.218 235.376 133.374 235.044C133.531 234.708 133.609 234.219 133.609 233.58V233.096ZM140.943 234.495L142.056 234.664C141.87 235.494 141.533 236.121 141.045 236.546C140.562 236.966 139.961 237.176 139.243 237.176C138.34 237.176 137.608 236.834 137.046 236.15C136.489 235.462 136.211 234.471 136.211 233.177C136.211 231.834 136.492 230.811 137.053 230.108C137.62 229.4 138.335 229.046 139.199 229.046C140.025 229.046 140.713 229.393 141.265 230.086C141.817 230.779 142.092 231.783 142.092 233.096L142.085 233.448H137.324C137.368 234.322 137.571 234.981 137.932 235.425C138.294 235.87 138.733 236.092 139.251 236.092C140.061 236.092 140.625 235.56 140.943 234.495ZM137.39 232.364H140.95C140.901 231.69 140.757 231.187 140.518 230.855C140.171 230.372 139.729 230.13 139.192 230.13C138.709 230.13 138.296 230.333 137.954 230.738C137.612 231.138 137.425 231.68 137.39 232.364ZM143.589 237V226.263H144.666V237H143.589ZM150.718 236.041C150.356 236.417 149.98 236.7 149.59 236.89C149.199 237.081 148.794 237.176 148.374 237.176C147.71 237.176 147.18 236.976 146.784 236.575C146.389 236.175 146.191 235.635 146.191 234.957C146.191 234.507 146.284 234.109 146.47 233.763C146.655 233.416 146.909 233.145 147.231 232.95C147.554 232.754 148.042 232.61 148.696 232.518C149.575 232.391 150.22 232.239 150.63 232.063L150.637 231.727C150.637 231.194 150.542 230.821 150.351 230.606C150.083 230.293 149.67 230.137 149.114 230.137C148.611 230.137 148.235 230.242 147.986 230.452C147.737 230.657 147.554 231.045 147.436 231.617L146.374 231.441C146.526 230.606 146.831 229.998 147.29 229.617C147.754 229.236 148.415 229.046 149.275 229.046C149.944 229.046 150.469 229.173 150.849 229.427C151.23 229.676 151.47 229.986 151.567 230.357C151.67 230.728 151.721 231.27 151.721 231.983V233.741C151.721 234.971 151.743 235.748 151.787 236.07C151.836 236.387 151.929 236.697 152.065 237H150.937C150.825 236.731 150.752 236.412 150.718 236.041ZM150.63 233.096C150.234 233.292 149.646 233.458 148.865 233.594C148.41 233.672 148.093 233.763 147.912 233.865C147.732 233.963 147.59 234.104 147.488 234.29C147.39 234.471 147.341 234.681 147.341 234.92C147.341 235.291 147.456 235.589 147.685 235.813C147.915 236.033 148.232 236.143 148.638 236.143C149.023 236.143 149.372 236.043 149.685 235.843C150.002 235.643 150.239 235.376 150.395 235.044C150.552 234.708 150.63 234.219 150.63 233.58V233.096ZM157.343 237V226.263H160.646C161.315 226.263 161.845 226.368 162.236 226.578C162.626 226.783 162.946 227.105 163.195 227.544C163.444 227.984 163.569 228.47 163.569 229.002C163.569 229.495 163.461 229.939 163.246 230.335C163.032 230.73 162.729 231.048 162.338 231.287C162.851 231.473 163.254 231.79 163.547 232.239C163.845 232.684 163.994 233.233 163.994 233.887C163.994 234.537 163.859 235.108 163.591 235.601C163.327 236.089 162.973 236.446 162.529 236.67C162.084 236.89 161.474 237 160.698 237H157.343ZM158.508 230.774H160.412C160.91 230.774 161.264 230.74 161.474 230.672C161.777 230.569 162.009 230.398 162.17 230.159C162.336 229.915 162.419 229.585 162.419 229.17C162.419 228.785 162.343 228.465 162.192 228.211C162.045 227.952 161.848 227.774 161.599 227.676C161.354 227.579 160.912 227.53 160.273 227.53H158.508V230.774ZM158.508 235.733H160.698C161.181 235.733 161.537 235.689 161.767 235.601C162.099 235.474 162.35 235.267 162.521 234.979C162.697 234.686 162.785 234.319 162.785 233.88C162.785 233.475 162.702 233.133 162.536 232.854C162.37 232.571 162.145 232.366 161.862 232.239C161.584 232.107 161.144 232.042 160.544 232.042H158.508V235.733ZM169.789 236.041C169.428 236.417 169.052 236.7 168.661 236.89C168.271 237.081 167.865 237.176 167.446 237.176C166.781 237.176 166.252 236.976 165.856 236.575C165.461 236.175 165.263 235.635 165.263 234.957C165.263 234.507 165.356 234.109 165.541 233.763C165.727 233.416 165.981 233.145 166.303 232.95C166.625 232.754 167.113 232.61 167.768 232.518C168.647 232.391 169.291 232.239 169.701 232.063L169.709 231.727C169.709 231.194 169.613 230.821 169.423 230.606C169.154 230.293 168.742 230.137 168.185 230.137C167.682 230.137 167.306 230.242 167.057 230.452C166.808 230.657 166.625 231.045 166.508 231.617L165.446 231.441C165.597 230.606 165.903 229.998 166.362 229.617C166.825 229.236 167.487 229.046 168.346 229.046C169.015 229.046 169.54 229.173 169.921 229.427C170.302 229.676 170.541 229.986 170.639 230.357C170.741 230.728 170.793 231.27 170.793 231.983V233.741C170.793 234.971 170.815 235.748 170.859 236.07C170.907 236.387 171 236.697 171.137 237H170.009C169.897 236.731 169.823 236.412 169.789 236.041ZM169.701 233.096C169.306 233.292 168.717 233.458 167.936 233.594C167.482 233.672 167.165 233.763 166.984 233.865C166.803 233.963 166.662 234.104 166.559 234.29C166.462 234.471 166.413 234.681 166.413 234.92C166.413 235.291 166.528 235.589 166.757 235.813C166.987 236.033 167.304 236.143 167.709 236.143C168.095 236.143 168.444 236.043 168.757 235.843C169.074 235.643 169.311 235.376 169.467 235.044C169.623 234.708 169.701 234.219 169.701 233.58V233.096ZM172.641 237V226.263H173.717V237H172.641ZM175.58 237V226.263H176.657V237H175.58ZM182.914 234.495L184.027 234.664C183.841 235.494 183.504 236.121 183.016 236.546C182.533 236.966 181.932 237.176 181.214 237.176C180.311 237.176 179.579 236.834 179.017 236.15C178.461 235.462 178.182 234.471 178.182 233.177C178.182 231.834 178.463 230.811 179.025 230.108C179.591 229.4 180.306 229.046 181.171 229.046C181.996 229.046 182.684 229.393 183.236 230.086C183.788 230.779 184.064 231.783 184.064 233.096L184.056 233.448H179.296C179.339 234.322 179.542 234.981 179.903 235.425C180.265 235.87 180.704 236.092 181.222 236.092C182.032 236.092 182.596 235.56 182.914 234.495ZM179.361 232.364H182.921C182.872 231.69 182.728 231.187 182.489 230.855C182.142 230.372 181.7 230.13 181.163 230.13C180.68 230.13 180.267 230.333 179.925 230.738C179.584 231.138 179.396 231.68 179.361 232.364ZM186.761 237L184.813 229.222H185.933L186.944 233.711L187.318 235.381L187.655 233.777L188.665 229.222H189.779L190.731 233.733L191.053 235.22L191.419 233.719L192.511 229.222H193.565L191.566 237H190.445L189.427 232.342L189.185 231.016L187.896 237H186.761Z" fill="white"/>
</g>
</g>
</g>
<defs>
<filter id="filter0_dd_1_366" x="0" y="0" width="540" height="395" filterUnits="userSpaceOnUse" color-interpolation-filters="sRGB">
<feFlood flood-opacity="0" result="BackgroundImageFix"/>
<feColorMatrix in="SourceAlpha" type="matrix" values="0 0 0 0 0 0 0 0 0 0 0 0 0 0 0 0 0 0 127 0" result="hardAlpha"/>
<feMorphology radius="30" operator="erode" in="SourceAlpha" result="effect1_dropShadow_1_366"/>
<feOffset dy="30"/>
<feGaussianBlur stdDeviation="30"/>
<feComposite in2="hardAlpha" operator="out"/>
<feColorMatrix type="matrix" values="0 0 0 0 0 0 0 0 0 0 0 0 0 0 0 0 0 0 0.3 0"/>
<feBlend mode="normal" in2="BackgroundImageFix" result="effect1_dropShadow_1_366"/>
<feColorMatrix in="SourceAlpha" type="matrix" values="0 0 0 0 0 0 0 0 0 0 0 0 0 0 0 0 0 0 127 0" result="hardAlpha"/>
<feMorphology radius="20" operator="erode" in="SourceAlpha" result="effect2_dropShadow_1_366"/>
<feOffset dy="50"/>
<feGaussianBlur stdDeviation="50"/>
<feComposite in2="hardAlpha" operator="out"/>
<feColorMatrix type="matrix" values="0 0 0 0 0.196078 0 0 0 0 0.196078 0 0 0 0 0.364706 0 0 0 0.25 0"/>
<feBlend mode="normal" in2="effect1_dropShadow_1_366" result="effect2_dropShadow_1_366"/>
<feBlend mode="normal" in="SourceGraphic" in2="effect2_dropShadow_1_366" result="shape"/>
</filter>
<filter id="filter1_d_1_366" x="121" y="110" width="53" height="48" filterUnits="userSpaceOnUse" color-interpolation-filters="sRGB">
<feFlood flood-opacity="0" result="BackgroundImageFix"/>
<feColorMatrix in="SourceAlpha" type="matrix" values="0 0 0 0 0 0 0 0 0 0 0 0 0 0 0 0 0 0 127 0" result="hardAlpha"/>
<feOffset dy="1"/>
<feComposite in2="hardAlpha" operator="out"/>
<feColorMatrix type="matrix" values="0 0 0 0 1 0 0 0 0 1 0 0 0 0 1 0 0 0 0.15 0"/>
<feBlend mode="normal" in2="BackgroundImageFix" result="effect1_dropShadow_1_366"/>
<feBlend mode="normal" in="SourceGraphic" in2="effect1_dropShadow_1_366" result="shape"/>
</filter>
<linearGradient id="paint0_linear_1_366" x1="71" y1="105.2" x2="172.734" y2="124.26" gradientUnits="userSpaceOnUse">
<stop stop-color="white"/>
<stop offset="0.18" stop-color="#CFCFCF"/>
<stop offset="0.5" stop-color="#FAFCFF"/>
<stop offset="0.68" stop-color="#CFCFCF"/>
<stop offset="1" stop-color="white"/>
</linearGradient>
<clipPath id="clip0_1_366">
<rect x="80" y="30" width="380" height="235" rx="16" fill="white"/>
</clipPath>
<clipPath id="clip1_1_366">
<rect x="80" y="30" width="380" height="235" rx="16" fill="white"/>
</clipPath>
<clipPath id="clip2_1_366">
<rect width="102" height="18" fill="white" transform="translate(109 53)"/>
</clipPath>
<clipPath id="clip3_1_366">
<rect width="108" height="108" fill="white" transform="translate(216 93.5)"/>
</clipPath>
<clipPath id="clip4_1_366">
<rect width="51" height="46" fill="white" transform="translate(122 110.5)"/>
</clipPath>
<clipPath id="clip5_1_366">
<rect width="84" height="27" fill="white" transform="translate(358 220)"/>
</clipPath>
</defs>
</svg>
