<svg width="60" height="26" viewBox="0 0 60 26" fill="none" xmlns="http://www.w3.org/2000/svg">
<g clip-path="url(#clip0_1_979)">
<path fill-rule="evenodd" clip-rule="evenodd" d="M59.64 14.78H51.58C51.77 16.71 53.18 17.33 54.78 17.33C56.42 17.33 57.74 16.96 58.83 16.38V19.7C57.4468 20.4959 55.864 20.8777 54.27 20.8C50.26 20.8 47.44 18.3 47.44 13.32C47.44 9.13 49.83 5.8 53.74 5.8C57.66 5.8 59.7 9.08 59.7 13.3C59.7 13.7 59.66 14.56 59.64 14.78ZM53.72 9.16C52.69 9.16 51.55 9.89 51.55 11.74H55.8C55.8 9.89 54.73 9.16 53.72 9.16ZM40.95 20.8C39.51 20.8 38.63 20.2 38.05 19.76L38.03 24.39L33.91 25.26V6.07H37.67L37.75 7.09C38.6221 6.26279 39.778 5.80115 40.98 5.8C43.88 5.8 46.6 8.4 46.6 13.2C46.6 18.43 43.9 20.8 40.95 20.8ZM40 9.45C39.05 9.45 38.46 9.79 38.03 10.26L38.05 16.38C38.45 16.82 39.03 17.16 40 17.16C41.52 17.16 42.54 15.51 42.54 13.29C42.54 11.14 41.5 9.45 40 9.45ZM28.24 6.07H32.37V20.51H28.24V6.07ZM28.24 1.37L32.37 0.5V3.86L28.24 4.74V1.38V1.37ZM23.92 10.72V20.51H19.8V6.07H23.5L23.62 7.29C24.62 5.52 26.69 5.88 27.24 6.07V9.86C26.72 9.69 24.95 9.43 23.92 10.72ZM15.37 15.44C15.37 17.87 17.97 17.12 18.49 16.9V20.26C17.94 20.56 16.95 20.8 15.6 20.8C15.0373 20.8164 14.4772 20.7182 13.9537 20.5113C13.4302 20.3044 12.9543 19.9932 12.5549 19.5966C12.1554 19.2 11.8409 18.7262 11.6303 18.2042C11.4197 17.6822 11.3176 17.1228 11.33 16.56L11.34 3.39L15.36 2.53V6.07H18.5V9.6H15.37V15.45V15.44ZM10.46 16.14C10.46 19.11 8.15 20.8 4.73 20.8C3.19532 20.7988 1.67725 20.4823 0.27 19.87V15.94C1.65 16.69 3.37 17.25 4.73 17.25C5.65 17.25 6.26 17.01 6.26 16.25C6.26 14.27 0 15.01 0 10.45C0 7.54 2.28 5.8 5.62 5.8C6.98 5.8 8.34 6 9.71 6.55V10.43C8.44396 9.76369 7.04035 9.4008 5.61 9.37C4.75 9.37 4.17 9.62 4.17 10.27C4.17 12.12 10.46 11.24 10.46 16.15V16.14Z" fill="white"/>
</g>
<defs>
<clipPath id="clip0_1_979">
<rect width="60" height="25" fill="white" transform="translate(0 0.5)"/>
</clipPath>
</defs>
</svg>
