<svg width="60" height="26" viewBox="0 0 60 26" fill="none" xmlns="http://www.w3.org/2000/svg">
<g clip-path="url(#clip0_1_874)">
<path fill-rule="evenodd" clip-rule="evenodd" d="M59.64 15.2175H51.58C51.77 17.1475 53.18 17.7675 54.78 17.7675C56.42 17.7675 57.74 17.3975 58.83 16.8175V20.1375C57.4468 20.9334 55.864 21.3152 54.27 21.2375C50.26 21.2375 47.44 18.7375 47.44 13.7575C47.44 9.5675 49.83 6.2375 53.74 6.2375C57.66 6.2375 59.7 9.5175 59.7 13.7375C59.7 14.1375 59.66 14.9975 59.64 15.2175ZM53.72 9.5975C52.69 9.5975 51.55 10.3275 51.55 12.1775H55.8C55.8 10.3275 54.73 9.5975 53.72 9.5975ZM40.95 21.2375C39.51 21.2375 38.63 20.6375 38.05 20.1975L38.03 24.8275L33.91 25.6975V6.5075H37.67L37.75 7.5275C38.6221 6.70029 39.778 6.23865 40.98 6.2375C43.88 6.2375 46.6 8.8375 46.6 13.6375C46.6 18.8675 43.9 21.2375 40.95 21.2375ZM40 9.8875C39.05 9.8875 38.46 10.2275 38.03 10.6975L38.05 16.8175C38.45 17.2575 39.03 17.5975 40 17.5975C41.52 17.5975 42.54 15.9475 42.54 13.7275C42.54 11.5775 41.5 9.8875 40 9.8875ZM28.24 6.5075H32.37V20.9475H28.24V6.5075ZM28.24 1.8075L32.37 0.9375V4.2975L28.24 5.1775V1.8175V1.8075ZM23.92 11.1575V20.9475H19.8V6.5075H23.5L23.62 7.7275C24.62 5.9575 26.69 6.3175 27.24 6.5075V10.2975C26.72 10.1275 24.95 9.8675 23.92 11.1575ZM15.37 15.8775C15.37 18.3075 17.97 17.5575 18.49 17.3375V20.6975C17.94 20.9975 16.95 21.2375 15.6 21.2375C15.0373 21.2539 14.4772 21.1557 13.9537 20.9488C13.4302 20.7419 12.9543 20.4307 12.5549 20.0341C12.1554 19.6375 11.8409 19.1637 11.6303 18.6417C11.4197 18.1197 11.3176 17.5603 11.33 16.9975L11.34 3.8275L15.36 2.9675V6.5075H18.5V10.0375H15.37V15.8875V15.8775ZM10.46 16.5775C10.46 19.5475 8.15 21.2375 4.73 21.2375C3.19532 21.2363 1.67725 20.9198 0.27 20.3075V16.3775C1.65 17.1275 3.37 17.6875 4.73 17.6875C5.65 17.6875 6.26 17.4475 6.26 16.6875C6.26 14.7075 0 15.4475 0 10.8875C0 7.9775 2.28 6.2375 5.62 6.2375C6.98 6.2375 8.34 6.4375 9.71 6.9875V10.8675C8.44396 10.2012 7.04035 9.8383 5.61 9.8075C4.75 9.8075 4.17 10.0575 4.17 10.7075C4.17 12.5575 10.46 11.6775 10.46 16.5875V16.5775Z" fill="#0A2540"/>
</g>
<defs>
<clipPath id="clip0_1_874">
<rect width="60" height="25" fill="white" transform="translate(0 0.9375)"/>
</clipPath>
</defs>
</svg>
